<mxfile host="www.draw.io" modified="2019-12-06T07:28:02.877Z" agent="Mozilla/5.0 (Windows NT 10.0; WOW64; rv:60.0) Gecko/20100101 Firefox/60.0" etag="pZ8B_Dg-Lh-E06gl44q1" version="12.3.3" type="github" pages="1">
  <diagram id="SZm9phWozSGubZyGkE0m" name="Page-1">
    <mxGraphModel dx="2079" dy="1359" grid="1" gridSize="10" guides="1" tooltips="1" connect="1" arrows="1" fold="1" page="1" pageScale="1" pageWidth="1169" pageHeight="826" math="0" shadow="0">
      <root>
        <mxCell id="0"/>
        <mxCell id="1" parent="0"/>
        <mxCell id="Z4ph5W7fdQSffsLZYVWT-1" value="" style="shape=image;verticalLabelPosition=bottom;labelBackgroundColor=#ffffff;verticalAlign=top;aspect=fixed;imageAspect=0;image=data:image/svg+xml,PHN2ZyB4bWxuczpjYz0iaHR0cDovL2NyZWF0aXZlY29tbW9ucy5vcmcvbnMjIiB4bWxuczpkYz0iaHR0cDovL3B1cmwub3JnL2RjL2VsZW1lbnRzLzEuMS8iIHhtbG5zOmlua3NjYXBlPSJodHRwOi8vd3d3Lmlua3NjYXBlLm9yZy9uYW1lc3BhY2VzL2lua3NjYXBlIiB4bWxuczpyZGY9Imh0dHA6Ly93d3cudzMub3JnLzE5OTkvMDIvMjItcmRmLXN5bnRheC1ucyMiIHhtbG5zOnNvZGlwb2RpPSJodHRwOi8vc29kaXBvZGkuc291cmNlZm9yZ2UubmV0L0RURC9zb2RpcG9kaS0wLmR0ZCIgeG1sbnM6c3ZnPSJodHRwOi8vd3d3LnczLm9yZy8yMDAwL3N2ZyIgeG1sbnM9Imh0dHA6Ly93d3cudzMub3JnLzIwMDAvc3ZnIiB4bWxuczp4bGluaz0iaHR0cDovL3d3dy53My5vcmcvMTk5OS94bGluayIgdmVyc2lvbj0iMS4xIiBpZD0ic3ZnMTAzNDY0IiBpbmtzY2FwZTp2ZXJzaW9uPSIwLjkyLjMgKDI0MDU1NDYsIDIwMTgtMDMtMTEpIiBzb2RpcG9kaTpkb2NuYW1lPSJ2c19vbmxpbmVfdGVhbV9tZW1iZXJzLnN2ZyIgeD0iMHB4IiB5PSIwcHgiIHZpZXdCb3g9IjAgMCAyNi45NCAyNi4zNSIgc3R5bGU9ImVuYWJsZS1iYWNrZ3JvdW5kOm5ldyAwIDAgMjYuOTQgMjYuMzU7IiB4bWw6c3BhY2U9InByZXNlcnZlIj4mI3hhOzxzb2RpcG9kaTpuYW1lZHZpZXcgYm9yZGVyY29sb3I9IiM2NjY2NjYiIGJvcmRlcm9wYWNpdHk9IjEiIGZpdC1tYXJnaW4tYm90dG9tPSIwIiBmaXQtbWFyZ2luLWxlZnQ9IjAiIGZpdC1tYXJnaW4tcmlnaHQ9IjAiIGZpdC1tYXJnaW4tdG9wPSIwIiBncmlkdG9sZXJhbmNlPSIxMCIgZ3VpZGV0b2xlcmFuY2U9IjEwIiBpZD0ibmFtZWR2aWV3MTAzNDY2IiBpbmtzY2FwZTpjdXJyZW50LWxheWVyPSJzdmcxMDM0NjQiIGlua3NjYXBlOmN4PSIyMC45NjQyOTMiIGlua3NjYXBlOmN5PSIxNC4zMzg2NTYiIGlua3NjYXBlOnBhZ2VvcGFjaXR5PSIwIiBpbmtzY2FwZTpwYWdlc2hhZG93PSIyIiBpbmtzY2FwZTp3aW5kb3ctaGVpZ2h0PSIxMDE3IiBpbmtzY2FwZTp3aW5kb3ctbWF4aW1pemVkPSIxIiBpbmtzY2FwZTp3aW5kb3ctd2lkdGg9IjE5MjAiIGlua3NjYXBlOndpbmRvdy14PSItOCIgaW5rc2NhcGU6d2luZG93LXk9Ii04IiBpbmtzY2FwZTp6b29tPSIxNy40NTIyNTEiIG9iamVjdHRvbGVyYW5jZT0iMTAiIHBhZ2Vjb2xvcj0iI2ZmZmZmZiIgc2hvd2dyaWQ9ImZhbHNlIj4mI3hhOwk8L3NvZGlwb2RpOm5hbWVkdmlldz4mI3hhOzxnIGlkPSJnMTAzNDYyIj4mI3hhOwk8dGl0bGUgaWQ9InRpdGxlMTAzNDQyIj5QYWdlLTE8L3RpdGxlPiYjeGE7CTxnIGlkPSJncm91cDQyNzAtMSI+JiN4YTsJCTx0aXRsZSBpZD0idGl0bGUxMDM0NDQiPlZTIE9ubGluZSAtIFRlYW0gTWVtYmVyczwvdGl0bGU+JiN4YTsJCTxnIGlkPSJzaGFwZTQyNzEtMiI+JiN4YTsJCQk8dGl0bGUgaWQ9InRpdGxlMTAzNDQ2Ij5TaGVldC40MjcxPC90aXRsZT4mI3hhOwkJCTxwYXRoIGlkPSJwYXRoMTAzNDQ4IiBpbmtzY2FwZTpjb25uZWN0b3ItY3VydmF0dXJlPSIwIiBzdHlsZT0iZmlsbDojN0Q3RDdEOyIgZD0iTTAsMHYyNi4zNWgyNi45NFYwSDB6Ii8+JiN4YTsJCTwvZz4mI3hhOwkJPGcgaWQ9InNoYXBlNDI3Mi00IiB0cmFuc2Zvcm09InRyYW5zbGF0ZSg2LjczMzg0LC0zLjY3NjE4KSI+JiN4YTsJCQk8dGl0bGUgaWQ9InRpdGxlMTAzNDUxIj5TaGVldC40MjcyPC90aXRsZT4mI3hhOwkJCTxwYXRoIGlkPSJwYXRoMTAzNDUzIiBpbmtzY2FwZTpjb25uZWN0b3ItY3VydmF0dXJlPSIwIiBzdHlsZT0iZmlsbDojRkZGRkZGOyIgZD0iTTAsMTYuN3Y5LjY1aDE0LjA4di05LjgxSDkuNmwtMi42NCwzLjY0ICAgICBsLTIuNDUtMy42NEwwLDE2Ljd6Ii8+JiN4YTsJCTwvZz4mI3hhOwkJPGcgaWQ9InNoYXBlNDI3My02IiB0cmFuc2Zvcm09InRyYW5zbGF0ZSg5LjE4MjUxLC0xNC4wOTIpIj4mI3hhOwkJCTx0aXRsZSBpZD0idGl0bGUxMDM0NTYiPlNoZWV0LjQyNzM8L3RpdGxlPiYjeGE7CQkJPHBhdGggaWQ9InBhdGgxMDM0NTgiIGlua3NjYXBlOmNvbm5lY3Rvci1jdXJ2YXR1cmU9IjAiIHN0eWxlPSJmaWxsOiNGRkZGRkY7IiBkPSJNMCwyMS43NWMwLTIuNTMsMi4wNy00LjU5LDQuNTktNC41OSAgICAgYzIuNTYsMCw0LjU5LDIuMDYsNC41OSw0LjU5YzAsMi41Ny0yLjAzLDQuNi00LjU5LDQuNkMyLjA3LDI2LjM1LDAsMjQuMzIsMCwyMS43NXoiLz4mI3hhOwkJPC9nPiYjeGE7CTwvZz4mI3hhOzwvZz4mI3hhOzwvc3ZnPg==;" parent="1" vertex="1">
          <mxGeometry x="210" y="200" width="27" height="26" as="geometry"/>
        </mxCell>
        <mxCell id="Z4ph5W7fdQSffsLZYVWT-2" value="" style="shape=image;verticalLabelPosition=bottom;labelBackgroundColor=#ffffff;verticalAlign=top;aspect=fixed;imageAspect=0;image=data:image/svg+xml,PHN2ZyB4bWxuczpjYz0iaHR0cDovL2NyZWF0aXZlY29tbW9ucy5vcmcvbnMjIiB4bWxuczpkYz0iaHR0cDovL3B1cmwub3JnL2RjL2VsZW1lbnRzLzEuMS8iIHhtbG5zOmlua3NjYXBlPSJodHRwOi8vd3d3Lmlua3NjYXBlLm9yZy9uYW1lc3BhY2VzL2lua3NjYXBlIiB4bWxuczpyZGY9Imh0dHA6Ly93d3cudzMub3JnLzE5OTkvMDIvMjItcmRmLXN5bnRheC1ucyMiIHhtbG5zOnNvZGlwb2RpPSJodHRwOi8vc29kaXBvZGkuc291cmNlZm9yZ2UubmV0L0RURC9zb2RpcG9kaS0wLmR0ZCIgeG1sbnM6c3ZnPSJodHRwOi8vd3d3LnczLm9yZy8yMDAwL3N2ZyIgeG1sbnM9Imh0dHA6Ly93d3cudzMub3JnLzIwMDAvc3ZnIiB4bWxuczp4bGluaz0iaHR0cDovL3d3dy53My5vcmcvMTk5OS94bGluayIgdmVyc2lvbj0iMS4xIiBpZD0ic3ZnMTAzNDY0IiBpbmtzY2FwZTp2ZXJzaW9uPSIwLjkyLjMgKDI0MDU1NDYsIDIwMTgtMDMtMTEpIiBzb2RpcG9kaTpkb2NuYW1lPSJ2c19vbmxpbmVfdGVhbV9tZW1iZXJzLnN2ZyIgeD0iMHB4IiB5PSIwcHgiIHZpZXdCb3g9IjAgMCAyNi45NCAyNi4zNSIgc3R5bGU9ImVuYWJsZS1iYWNrZ3JvdW5kOm5ldyAwIDAgMjYuOTQgMjYuMzU7IiB4bWw6c3BhY2U9InByZXNlcnZlIj4mI3hhOzxzb2RpcG9kaTpuYW1lZHZpZXcgYm9yZGVyY29sb3I9IiM2NjY2NjYiIGJvcmRlcm9wYWNpdHk9IjEiIGZpdC1tYXJnaW4tYm90dG9tPSIwIiBmaXQtbWFyZ2luLWxlZnQ9IjAiIGZpdC1tYXJnaW4tcmlnaHQ9IjAiIGZpdC1tYXJnaW4tdG9wPSIwIiBncmlkdG9sZXJhbmNlPSIxMCIgZ3VpZGV0b2xlcmFuY2U9IjEwIiBpZD0ibmFtZWR2aWV3MTAzNDY2IiBpbmtzY2FwZTpjdXJyZW50LWxheWVyPSJzdmcxMDM0NjQiIGlua3NjYXBlOmN4PSIyMC45NjQyOTMiIGlua3NjYXBlOmN5PSIxNC4zMzg2NTYiIGlua3NjYXBlOnBhZ2VvcGFjaXR5PSIwIiBpbmtzY2FwZTpwYWdlc2hhZG93PSIyIiBpbmtzY2FwZTp3aW5kb3ctaGVpZ2h0PSIxMDE3IiBpbmtzY2FwZTp3aW5kb3ctbWF4aW1pemVkPSIxIiBpbmtzY2FwZTp3aW5kb3ctd2lkdGg9IjE5MjAiIGlua3NjYXBlOndpbmRvdy14PSItOCIgaW5rc2NhcGU6d2luZG93LXk9Ii04IiBpbmtzY2FwZTp6b29tPSIxNy40NTIyNTEiIG9iamVjdHRvbGVyYW5jZT0iMTAiIHBhZ2Vjb2xvcj0iI2ZmZmZmZiIgc2hvd2dyaWQ9ImZhbHNlIj4mI3hhOwk8L3NvZGlwb2RpOm5hbWVkdmlldz4mI3hhOzxnIGlkPSJnMTAzNDYyIj4mI3hhOwk8dGl0bGUgaWQ9InRpdGxlMTAzNDQyIj5QYWdlLTE8L3RpdGxlPiYjeGE7CTxnIGlkPSJncm91cDQyNzAtMSI+JiN4YTsJCTx0aXRsZSBpZD0idGl0bGUxMDM0NDQiPlZTIE9ubGluZSAtIFRlYW0gTWVtYmVyczwvdGl0bGU+JiN4YTsJCTxnIGlkPSJzaGFwZTQyNzEtMiI+JiN4YTsJCQk8dGl0bGUgaWQ9InRpdGxlMTAzNDQ2Ij5TaGVldC40MjcxPC90aXRsZT4mI3hhOwkJCTxwYXRoIGlkPSJwYXRoMTAzNDQ4IiBpbmtzY2FwZTpjb25uZWN0b3ItY3VydmF0dXJlPSIwIiBzdHlsZT0iZmlsbDojN0Q3RDdEOyIgZD0iTTAsMHYyNi4zNWgyNi45NFYwSDB6Ii8+JiN4YTsJCTwvZz4mI3hhOwkJPGcgaWQ9InNoYXBlNDI3Mi00IiB0cmFuc2Zvcm09InRyYW5zbGF0ZSg2LjczMzg0LC0zLjY3NjE4KSI+JiN4YTsJCQk8dGl0bGUgaWQ9InRpdGxlMTAzNDUxIj5TaGVldC40MjcyPC90aXRsZT4mI3hhOwkJCTxwYXRoIGlkPSJwYXRoMTAzNDUzIiBpbmtzY2FwZTpjb25uZWN0b3ItY3VydmF0dXJlPSIwIiBzdHlsZT0iZmlsbDojRkZGRkZGOyIgZD0iTTAsMTYuN3Y5LjY1aDE0LjA4di05LjgxSDkuNmwtMi42NCwzLjY0ICAgICBsLTIuNDUtMy42NEwwLDE2Ljd6Ii8+JiN4YTsJCTwvZz4mI3hhOwkJPGcgaWQ9InNoYXBlNDI3My02IiB0cmFuc2Zvcm09InRyYW5zbGF0ZSg5LjE4MjUxLC0xNC4wOTIpIj4mI3hhOwkJCTx0aXRsZSBpZD0idGl0bGUxMDM0NTYiPlNoZWV0LjQyNzM8L3RpdGxlPiYjeGE7CQkJPHBhdGggaWQ9InBhdGgxMDM0NTgiIGlua3NjYXBlOmNvbm5lY3Rvci1jdXJ2YXR1cmU9IjAiIHN0eWxlPSJmaWxsOiNGRkZGRkY7IiBkPSJNMCwyMS43NWMwLTIuNTMsMi4wNy00LjU5LDQuNTktNC41OSAgICAgYzIuNTYsMCw0LjU5LDIuMDYsNC41OSw0LjU5YzAsMi41Ny0yLjAzLDQuNi00LjU5LDQuNkMyLjA3LDI2LjM1LDAsMjQuMzIsMCwyMS43NXoiLz4mI3hhOwkJPC9nPiYjeGE7CTwvZz4mI3hhOzwvZz4mI3hhOzwvc3ZnPg==;" parent="1" vertex="1">
          <mxGeometry x="280" y="200" width="27" height="26" as="geometry"/>
        </mxCell>
        <mxCell id="Z4ph5W7fdQSffsLZYVWT-3" value="" style="shape=image;verticalLabelPosition=bottom;labelBackgroundColor=#ffffff;verticalAlign=top;aspect=fixed;imageAspect=0;image=data:image/svg+xml,PHN2ZyB4bWxuczpjYz0iaHR0cDovL2NyZWF0aXZlY29tbW9ucy5vcmcvbnMjIiB4bWxuczpkYz0iaHR0cDovL3B1cmwub3JnL2RjL2VsZW1lbnRzLzEuMS8iIHhtbG5zOmlua3NjYXBlPSJodHRwOi8vd3d3Lmlua3NjYXBlLm9yZy9uYW1lc3BhY2VzL2lua3NjYXBlIiB4bWxuczpyZGY9Imh0dHA6Ly93d3cudzMub3JnLzE5OTkvMDIvMjItcmRmLXN5bnRheC1ucyMiIHhtbG5zOnNvZGlwb2RpPSJodHRwOi8vc29kaXBvZGkuc291cmNlZm9yZ2UubmV0L0RURC9zb2RpcG9kaS0wLmR0ZCIgeG1sbnM6c3ZnPSJodHRwOi8vd3d3LnczLm9yZy8yMDAwL3N2ZyIgeG1sbnM9Imh0dHA6Ly93d3cudzMub3JnLzIwMDAvc3ZnIiB4bWxuczp4bGluaz0iaHR0cDovL3d3dy53My5vcmcvMTk5OS94bGluayIgdmVyc2lvbj0iMS4xIiBpZD0ic3ZnMTAzNDY0IiBpbmtzY2FwZTp2ZXJzaW9uPSIwLjkyLjMgKDI0MDU1NDYsIDIwMTgtMDMtMTEpIiBzb2RpcG9kaTpkb2NuYW1lPSJ2c19vbmxpbmVfdGVhbV9tZW1iZXJzLnN2ZyIgeD0iMHB4IiB5PSIwcHgiIHZpZXdCb3g9IjAgMCAyNi45NCAyNi4zNSIgc3R5bGU9ImVuYWJsZS1iYWNrZ3JvdW5kOm5ldyAwIDAgMjYuOTQgMjYuMzU7IiB4bWw6c3BhY2U9InByZXNlcnZlIj4mI3hhOzxzb2RpcG9kaTpuYW1lZHZpZXcgYm9yZGVyY29sb3I9IiM2NjY2NjYiIGJvcmRlcm9wYWNpdHk9IjEiIGZpdC1tYXJnaW4tYm90dG9tPSIwIiBmaXQtbWFyZ2luLWxlZnQ9IjAiIGZpdC1tYXJnaW4tcmlnaHQ9IjAiIGZpdC1tYXJnaW4tdG9wPSIwIiBncmlkdG9sZXJhbmNlPSIxMCIgZ3VpZGV0b2xlcmFuY2U9IjEwIiBpZD0ibmFtZWR2aWV3MTAzNDY2IiBpbmtzY2FwZTpjdXJyZW50LWxheWVyPSJzdmcxMDM0NjQiIGlua3NjYXBlOmN4PSIyMC45NjQyOTMiIGlua3NjYXBlOmN5PSIxNC4zMzg2NTYiIGlua3NjYXBlOnBhZ2VvcGFjaXR5PSIwIiBpbmtzY2FwZTpwYWdlc2hhZG93PSIyIiBpbmtzY2FwZTp3aW5kb3ctaGVpZ2h0PSIxMDE3IiBpbmtzY2FwZTp3aW5kb3ctbWF4aW1pemVkPSIxIiBpbmtzY2FwZTp3aW5kb3ctd2lkdGg9IjE5MjAiIGlua3NjYXBlOndpbmRvdy14PSItOCIgaW5rc2NhcGU6d2luZG93LXk9Ii04IiBpbmtzY2FwZTp6b29tPSIxNy40NTIyNTEiIG9iamVjdHRvbGVyYW5jZT0iMTAiIHBhZ2Vjb2xvcj0iI2ZmZmZmZiIgc2hvd2dyaWQ9ImZhbHNlIj4mI3hhOwk8L3NvZGlwb2RpOm5hbWVkdmlldz4mI3hhOzxnIGlkPSJnMTAzNDYyIj4mI3hhOwk8dGl0bGUgaWQ9InRpdGxlMTAzNDQyIj5QYWdlLTE8L3RpdGxlPiYjeGE7CTxnIGlkPSJncm91cDQyNzAtMSI+JiN4YTsJCTx0aXRsZSBpZD0idGl0bGUxMDM0NDQiPlZTIE9ubGluZSAtIFRlYW0gTWVtYmVyczwvdGl0bGU+JiN4YTsJCTxnIGlkPSJzaGFwZTQyNzEtMiI+JiN4YTsJCQk8dGl0bGUgaWQ9InRpdGxlMTAzNDQ2Ij5TaGVldC40MjcxPC90aXRsZT4mI3hhOwkJCTxwYXRoIGlkPSJwYXRoMTAzNDQ4IiBpbmtzY2FwZTpjb25uZWN0b3ItY3VydmF0dXJlPSIwIiBzdHlsZT0iZmlsbDojN0Q3RDdEOyIgZD0iTTAsMHYyNi4zNWgyNi45NFYwSDB6Ii8+JiN4YTsJCTwvZz4mI3hhOwkJPGcgaWQ9InNoYXBlNDI3Mi00IiB0cmFuc2Zvcm09InRyYW5zbGF0ZSg2LjczMzg0LC0zLjY3NjE4KSI+JiN4YTsJCQk8dGl0bGUgaWQ9InRpdGxlMTAzNDUxIj5TaGVldC40MjcyPC90aXRsZT4mI3hhOwkJCTxwYXRoIGlkPSJwYXRoMTAzNDUzIiBpbmtzY2FwZTpjb25uZWN0b3ItY3VydmF0dXJlPSIwIiBzdHlsZT0iZmlsbDojRkZGRkZGOyIgZD0iTTAsMTYuN3Y5LjY1aDE0LjA4di05LjgxSDkuNmwtMi42NCwzLjY0ICAgICBsLTIuNDUtMy42NEwwLDE2Ljd6Ii8+JiN4YTsJCTwvZz4mI3hhOwkJPGcgaWQ9InNoYXBlNDI3My02IiB0cmFuc2Zvcm09InRyYW5zbGF0ZSg5LjE4MjUxLC0xNC4wOTIpIj4mI3hhOwkJCTx0aXRsZSBpZD0idGl0bGUxMDM0NTYiPlNoZWV0LjQyNzM8L3RpdGxlPiYjeGE7CQkJPHBhdGggaWQ9InBhdGgxMDM0NTgiIGlua3NjYXBlOmNvbm5lY3Rvci1jdXJ2YXR1cmU9IjAiIHN0eWxlPSJmaWxsOiNGRkZGRkY7IiBkPSJNMCwyMS43NWMwLTIuNTMsMi4wNy00LjU5LDQuNTktNC41OSAgICAgYzIuNTYsMCw0LjU5LDIuMDYsNC41OSw0LjU5YzAsMi41Ny0yLjAzLDQuNi00LjU5LDQuNkMyLjA3LDI2LjM1LDAsMjQuMzIsMCwyMS43NXoiLz4mI3hhOwkJPC9nPiYjeGE7CTwvZz4mI3hhOzwvZz4mI3hhOzwvc3ZnPg==;" parent="1" vertex="1">
          <mxGeometry x="360" y="200" width="27" height="26" as="geometry"/>
        </mxCell>
        <mxCell id="Z4ph5W7fdQSffsLZYVWT-4" value="" style="shape=image;verticalLabelPosition=bottom;labelBackgroundColor=#ffffff;verticalAlign=top;aspect=fixed;imageAspect=0;image=data:image/svg+xml,PHN2ZyB4bWxuczpjYz0iaHR0cDovL2NyZWF0aXZlY29tbW9ucy5vcmcvbnMjIiB4bWxuczpkYz0iaHR0cDovL3B1cmwub3JnL2RjL2VsZW1lbnRzLzEuMS8iIHhtbG5zOmlua3NjYXBlPSJodHRwOi8vd3d3Lmlua3NjYXBlLm9yZy9uYW1lc3BhY2VzL2lua3NjYXBlIiB4bWxuczpyZGY9Imh0dHA6Ly93d3cudzMub3JnLzE5OTkvMDIvMjItcmRmLXN5bnRheC1ucyMiIHhtbG5zOnNvZGlwb2RpPSJodHRwOi8vc29kaXBvZGkuc291cmNlZm9yZ2UubmV0L0RURC9zb2RpcG9kaS0wLmR0ZCIgeG1sbnM6c3ZnPSJodHRwOi8vd3d3LnczLm9yZy8yMDAwL3N2ZyIgeG1sbnM9Imh0dHA6Ly93d3cudzMub3JnLzIwMDAvc3ZnIiB4bWxuczp4bGluaz0iaHR0cDovL3d3dy53My5vcmcvMTk5OS94bGluayIgdmVyc2lvbj0iMS4xIiBpZD0ic3ZnMTAzNDY0IiBpbmtzY2FwZTp2ZXJzaW9uPSIwLjkyLjMgKDI0MDU1NDYsIDIwMTgtMDMtMTEpIiBzb2RpcG9kaTpkb2NuYW1lPSJ2c19vbmxpbmVfdGVhbV9tZW1iZXJzLnN2ZyIgeD0iMHB4IiB5PSIwcHgiIHZpZXdCb3g9IjAgMCAyNi45NCAyNi4zNSIgc3R5bGU9ImVuYWJsZS1iYWNrZ3JvdW5kOm5ldyAwIDAgMjYuOTQgMjYuMzU7IiB4bWw6c3BhY2U9InByZXNlcnZlIj4mI3hhOzxzb2RpcG9kaTpuYW1lZHZpZXcgYm9yZGVyY29sb3I9IiM2NjY2NjYiIGJvcmRlcm9wYWNpdHk9IjEiIGZpdC1tYXJnaW4tYm90dG9tPSIwIiBmaXQtbWFyZ2luLWxlZnQ9IjAiIGZpdC1tYXJnaW4tcmlnaHQ9IjAiIGZpdC1tYXJnaW4tdG9wPSIwIiBncmlkdG9sZXJhbmNlPSIxMCIgZ3VpZGV0b2xlcmFuY2U9IjEwIiBpZD0ibmFtZWR2aWV3MTAzNDY2IiBpbmtzY2FwZTpjdXJyZW50LWxheWVyPSJzdmcxMDM0NjQiIGlua3NjYXBlOmN4PSIyMC45NjQyOTMiIGlua3NjYXBlOmN5PSIxNC4zMzg2NTYiIGlua3NjYXBlOnBhZ2VvcGFjaXR5PSIwIiBpbmtzY2FwZTpwYWdlc2hhZG93PSIyIiBpbmtzY2FwZTp3aW5kb3ctaGVpZ2h0PSIxMDE3IiBpbmtzY2FwZTp3aW5kb3ctbWF4aW1pemVkPSIxIiBpbmtzY2FwZTp3aW5kb3ctd2lkdGg9IjE5MjAiIGlua3NjYXBlOndpbmRvdy14PSItOCIgaW5rc2NhcGU6d2luZG93LXk9Ii04IiBpbmtzY2FwZTp6b29tPSIxNy40NTIyNTEiIG9iamVjdHRvbGVyYW5jZT0iMTAiIHBhZ2Vjb2xvcj0iI2ZmZmZmZiIgc2hvd2dyaWQ9ImZhbHNlIj4mI3hhOwk8L3NvZGlwb2RpOm5hbWVkdmlldz4mI3hhOzxnIGlkPSJnMTAzNDYyIj4mI3hhOwk8dGl0bGUgaWQ9InRpdGxlMTAzNDQyIj5QYWdlLTE8L3RpdGxlPiYjeGE7CTxnIGlkPSJncm91cDQyNzAtMSI+JiN4YTsJCTx0aXRsZSBpZD0idGl0bGUxMDM0NDQiPlZTIE9ubGluZSAtIFRlYW0gTWVtYmVyczwvdGl0bGU+JiN4YTsJCTxnIGlkPSJzaGFwZTQyNzEtMiI+JiN4YTsJCQk8dGl0bGUgaWQ9InRpdGxlMTAzNDQ2Ij5TaGVldC40MjcxPC90aXRsZT4mI3hhOwkJCTxwYXRoIGlkPSJwYXRoMTAzNDQ4IiBpbmtzY2FwZTpjb25uZWN0b3ItY3VydmF0dXJlPSIwIiBzdHlsZT0iZmlsbDojN0Q3RDdEOyIgZD0iTTAsMHYyNi4zNWgyNi45NFYwSDB6Ii8+JiN4YTsJCTwvZz4mI3hhOwkJPGcgaWQ9InNoYXBlNDI3Mi00IiB0cmFuc2Zvcm09InRyYW5zbGF0ZSg2LjczMzg0LC0zLjY3NjE4KSI+JiN4YTsJCQk8dGl0bGUgaWQ9InRpdGxlMTAzNDUxIj5TaGVldC40MjcyPC90aXRsZT4mI3hhOwkJCTxwYXRoIGlkPSJwYXRoMTAzNDUzIiBpbmtzY2FwZTpjb25uZWN0b3ItY3VydmF0dXJlPSIwIiBzdHlsZT0iZmlsbDojRkZGRkZGOyIgZD0iTTAsMTYuN3Y5LjY1aDE0LjA4di05LjgxSDkuNmwtMi42NCwzLjY0ICAgICBsLTIuNDUtMy42NEwwLDE2Ljd6Ii8+JiN4YTsJCTwvZz4mI3hhOwkJPGcgaWQ9InNoYXBlNDI3My02IiB0cmFuc2Zvcm09InRyYW5zbGF0ZSg5LjE4MjUxLC0xNC4wOTIpIj4mI3hhOwkJCTx0aXRsZSBpZD0idGl0bGUxMDM0NTYiPlNoZWV0LjQyNzM8L3RpdGxlPiYjeGE7CQkJPHBhdGggaWQ9InBhdGgxMDM0NTgiIGlua3NjYXBlOmNvbm5lY3Rvci1jdXJ2YXR1cmU9IjAiIHN0eWxlPSJmaWxsOiNGRkZGRkY7IiBkPSJNMCwyMS43NWMwLTIuNTMsMi4wNy00LjU5LDQuNTktNC41OSAgICAgYzIuNTYsMCw0LjU5LDIuMDYsNC41OSw0LjU5YzAsMi41Ny0yLjAzLDQuNi00LjU5LDQuNkMyLjA3LDI2LjM1LDAsMjQuMzIsMCwyMS43NXoiLz4mI3hhOwkJPC9nPiYjeGE7CTwvZz4mI3hhOzwvZz4mI3hhOzwvc3ZnPg==;" parent="1" vertex="1">
          <mxGeometry x="210" y="280" width="27" height="26" as="geometry"/>
        </mxCell>
        <mxCell id="Z4ph5W7fdQSffsLZYVWT-5" value="" style="shape=image;verticalLabelPosition=bottom;labelBackgroundColor=#ffffff;verticalAlign=top;aspect=fixed;imageAspect=0;image=data:image/svg+xml,PHN2ZyB4bWxuczpjYz0iaHR0cDovL2NyZWF0aXZlY29tbW9ucy5vcmcvbnMjIiB4bWxuczpkYz0iaHR0cDovL3B1cmwub3JnL2RjL2VsZW1lbnRzLzEuMS8iIHhtbG5zOmlua3NjYXBlPSJodHRwOi8vd3d3Lmlua3NjYXBlLm9yZy9uYW1lc3BhY2VzL2lua3NjYXBlIiB4bWxuczpyZGY9Imh0dHA6Ly93d3cudzMub3JnLzE5OTkvMDIvMjItcmRmLXN5bnRheC1ucyMiIHhtbG5zOnNvZGlwb2RpPSJodHRwOi8vc29kaXBvZGkuc291cmNlZm9yZ2UubmV0L0RURC9zb2RpcG9kaS0wLmR0ZCIgeG1sbnM6c3ZnPSJodHRwOi8vd3d3LnczLm9yZy8yMDAwL3N2ZyIgeG1sbnM9Imh0dHA6Ly93d3cudzMub3JnLzIwMDAvc3ZnIiB4bWxuczp4bGluaz0iaHR0cDovL3d3dy53My5vcmcvMTk5OS94bGluayIgdmVyc2lvbj0iMS4xIiBpZD0ic3ZnMTAzNDY0IiBpbmtzY2FwZTp2ZXJzaW9uPSIwLjkyLjMgKDI0MDU1NDYsIDIwMTgtMDMtMTEpIiBzb2RpcG9kaTpkb2NuYW1lPSJ2c19vbmxpbmVfdGVhbV9tZW1iZXJzLnN2ZyIgeD0iMHB4IiB5PSIwcHgiIHZpZXdCb3g9IjAgMCAyNi45NCAyNi4zNSIgc3R5bGU9ImVuYWJsZS1iYWNrZ3JvdW5kOm5ldyAwIDAgMjYuOTQgMjYuMzU7IiB4bWw6c3BhY2U9InByZXNlcnZlIj4mI3hhOzxzb2RpcG9kaTpuYW1lZHZpZXcgYm9yZGVyY29sb3I9IiM2NjY2NjYiIGJvcmRlcm9wYWNpdHk9IjEiIGZpdC1tYXJnaW4tYm90dG9tPSIwIiBmaXQtbWFyZ2luLWxlZnQ9IjAiIGZpdC1tYXJnaW4tcmlnaHQ9IjAiIGZpdC1tYXJnaW4tdG9wPSIwIiBncmlkdG9sZXJhbmNlPSIxMCIgZ3VpZGV0b2xlcmFuY2U9IjEwIiBpZD0ibmFtZWR2aWV3MTAzNDY2IiBpbmtzY2FwZTpjdXJyZW50LWxheWVyPSJzdmcxMDM0NjQiIGlua3NjYXBlOmN4PSIyMC45NjQyOTMiIGlua3NjYXBlOmN5PSIxNC4zMzg2NTYiIGlua3NjYXBlOnBhZ2VvcGFjaXR5PSIwIiBpbmtzY2FwZTpwYWdlc2hhZG93PSIyIiBpbmtzY2FwZTp3aW5kb3ctaGVpZ2h0PSIxMDE3IiBpbmtzY2FwZTp3aW5kb3ctbWF4aW1pemVkPSIxIiBpbmtzY2FwZTp3aW5kb3ctd2lkdGg9IjE5MjAiIGlua3NjYXBlOndpbmRvdy14PSItOCIgaW5rc2NhcGU6d2luZG93LXk9Ii04IiBpbmtzY2FwZTp6b29tPSIxNy40NTIyNTEiIG9iamVjdHRvbGVyYW5jZT0iMTAiIHBhZ2Vjb2xvcj0iI2ZmZmZmZiIgc2hvd2dyaWQ9ImZhbHNlIj4mI3hhOwk8L3NvZGlwb2RpOm5hbWVkdmlldz4mI3hhOzxnIGlkPSJnMTAzNDYyIj4mI3hhOwk8dGl0bGUgaWQ9InRpdGxlMTAzNDQyIj5QYWdlLTE8L3RpdGxlPiYjeGE7CTxnIGlkPSJncm91cDQyNzAtMSI+JiN4YTsJCTx0aXRsZSBpZD0idGl0bGUxMDM0NDQiPlZTIE9ubGluZSAtIFRlYW0gTWVtYmVyczwvdGl0bGU+JiN4YTsJCTxnIGlkPSJzaGFwZTQyNzEtMiI+JiN4YTsJCQk8dGl0bGUgaWQ9InRpdGxlMTAzNDQ2Ij5TaGVldC40MjcxPC90aXRsZT4mI3hhOwkJCTxwYXRoIGlkPSJwYXRoMTAzNDQ4IiBpbmtzY2FwZTpjb25uZWN0b3ItY3VydmF0dXJlPSIwIiBzdHlsZT0iZmlsbDojN0Q3RDdEOyIgZD0iTTAsMHYyNi4zNWgyNi45NFYwSDB6Ii8+JiN4YTsJCTwvZz4mI3hhOwkJPGcgaWQ9InNoYXBlNDI3Mi00IiB0cmFuc2Zvcm09InRyYW5zbGF0ZSg2LjczMzg0LC0zLjY3NjE4KSI+JiN4YTsJCQk8dGl0bGUgaWQ9InRpdGxlMTAzNDUxIj5TaGVldC40MjcyPC90aXRsZT4mI3hhOwkJCTxwYXRoIGlkPSJwYXRoMTAzNDUzIiBpbmtzY2FwZTpjb25uZWN0b3ItY3VydmF0dXJlPSIwIiBzdHlsZT0iZmlsbDojRkZGRkZGOyIgZD0iTTAsMTYuN3Y5LjY1aDE0LjA4di05LjgxSDkuNmwtMi42NCwzLjY0ICAgICBsLTIuNDUtMy42NEwwLDE2Ljd6Ii8+JiN4YTsJCTwvZz4mI3hhOwkJPGcgaWQ9InNoYXBlNDI3My02IiB0cmFuc2Zvcm09InRyYW5zbGF0ZSg5LjE4MjUxLC0xNC4wOTIpIj4mI3hhOwkJCTx0aXRsZSBpZD0idGl0bGUxMDM0NTYiPlNoZWV0LjQyNzM8L3RpdGxlPiYjeGE7CQkJPHBhdGggaWQ9InBhdGgxMDM0NTgiIGlua3NjYXBlOmNvbm5lY3Rvci1jdXJ2YXR1cmU9IjAiIHN0eWxlPSJmaWxsOiNGRkZGRkY7IiBkPSJNMCwyMS43NWMwLTIuNTMsMi4wNy00LjU5LDQuNTktNC41OSAgICAgYzIuNTYsMCw0LjU5LDIuMDYsNC41OSw0LjU5YzAsMi41Ny0yLjAzLDQuNi00LjU5LDQuNkMyLjA3LDI2LjM1LDAsMjQuMzIsMCwyMS43NXoiLz4mI3hhOwkJPC9nPiYjeGE7CTwvZz4mI3hhOzwvZz4mI3hhOzwvc3ZnPg==;" parent="1" vertex="1">
          <mxGeometry x="280" y="280" width="27" height="26" as="geometry"/>
        </mxCell>
        <mxCell id="Z4ph5W7fdQSffsLZYVWT-6" value="" style="shape=image;verticalLabelPosition=bottom;labelBackgroundColor=#ffffff;verticalAlign=top;aspect=fixed;imageAspect=0;image=data:image/svg+xml,PHN2ZyB4bWxuczpjYz0iaHR0cDovL2NyZWF0aXZlY29tbW9ucy5vcmcvbnMjIiB4bWxuczpkYz0iaHR0cDovL3B1cmwub3JnL2RjL2VsZW1lbnRzLzEuMS8iIHhtbG5zOmlua3NjYXBlPSJodHRwOi8vd3d3Lmlua3NjYXBlLm9yZy9uYW1lc3BhY2VzL2lua3NjYXBlIiB4bWxuczpyZGY9Imh0dHA6Ly93d3cudzMub3JnLzE5OTkvMDIvMjItcmRmLXN5bnRheC1ucyMiIHhtbG5zOnNvZGlwb2RpPSJodHRwOi8vc29kaXBvZGkuc291cmNlZm9yZ2UubmV0L0RURC9zb2RpcG9kaS0wLmR0ZCIgeG1sbnM6c3ZnPSJodHRwOi8vd3d3LnczLm9yZy8yMDAwL3N2ZyIgeG1sbnM9Imh0dHA6Ly93d3cudzMub3JnLzIwMDAvc3ZnIiB4bWxuczp4bGluaz0iaHR0cDovL3d3dy53My5vcmcvMTk5OS94bGluayIgdmVyc2lvbj0iMS4xIiBpZD0ic3ZnMTAzNDY0IiBpbmtzY2FwZTp2ZXJzaW9uPSIwLjkyLjMgKDI0MDU1NDYsIDIwMTgtMDMtMTEpIiBzb2RpcG9kaTpkb2NuYW1lPSJ2c19vbmxpbmVfdGVhbV9tZW1iZXJzLnN2ZyIgeD0iMHB4IiB5PSIwcHgiIHZpZXdCb3g9IjAgMCAyNi45NCAyNi4zNSIgc3R5bGU9ImVuYWJsZS1iYWNrZ3JvdW5kOm5ldyAwIDAgMjYuOTQgMjYuMzU7IiB4bWw6c3BhY2U9InByZXNlcnZlIj4mI3hhOzxzb2RpcG9kaTpuYW1lZHZpZXcgYm9yZGVyY29sb3I9IiM2NjY2NjYiIGJvcmRlcm9wYWNpdHk9IjEiIGZpdC1tYXJnaW4tYm90dG9tPSIwIiBmaXQtbWFyZ2luLWxlZnQ9IjAiIGZpdC1tYXJnaW4tcmlnaHQ9IjAiIGZpdC1tYXJnaW4tdG9wPSIwIiBncmlkdG9sZXJhbmNlPSIxMCIgZ3VpZGV0b2xlcmFuY2U9IjEwIiBpZD0ibmFtZWR2aWV3MTAzNDY2IiBpbmtzY2FwZTpjdXJyZW50LWxheWVyPSJzdmcxMDM0NjQiIGlua3NjYXBlOmN4PSIyMC45NjQyOTMiIGlua3NjYXBlOmN5PSIxNC4zMzg2NTYiIGlua3NjYXBlOnBhZ2VvcGFjaXR5PSIwIiBpbmtzY2FwZTpwYWdlc2hhZG93PSIyIiBpbmtzY2FwZTp3aW5kb3ctaGVpZ2h0PSIxMDE3IiBpbmtzY2FwZTp3aW5kb3ctbWF4aW1pemVkPSIxIiBpbmtzY2FwZTp3aW5kb3ctd2lkdGg9IjE5MjAiIGlua3NjYXBlOndpbmRvdy14PSItOCIgaW5rc2NhcGU6d2luZG93LXk9Ii04IiBpbmtzY2FwZTp6b29tPSIxNy40NTIyNTEiIG9iamVjdHRvbGVyYW5jZT0iMTAiIHBhZ2Vjb2xvcj0iI2ZmZmZmZiIgc2hvd2dyaWQ9ImZhbHNlIj4mI3hhOwk8L3NvZGlwb2RpOm5hbWVkdmlldz4mI3hhOzxnIGlkPSJnMTAzNDYyIj4mI3hhOwk8dGl0bGUgaWQ9InRpdGxlMTAzNDQyIj5QYWdlLTE8L3RpdGxlPiYjeGE7CTxnIGlkPSJncm91cDQyNzAtMSI+JiN4YTsJCTx0aXRsZSBpZD0idGl0bGUxMDM0NDQiPlZTIE9ubGluZSAtIFRlYW0gTWVtYmVyczwvdGl0bGU+JiN4YTsJCTxnIGlkPSJzaGFwZTQyNzEtMiI+JiN4YTsJCQk8dGl0bGUgaWQ9InRpdGxlMTAzNDQ2Ij5TaGVldC40MjcxPC90aXRsZT4mI3hhOwkJCTxwYXRoIGlkPSJwYXRoMTAzNDQ4IiBpbmtzY2FwZTpjb25uZWN0b3ItY3VydmF0dXJlPSIwIiBzdHlsZT0iZmlsbDojN0Q3RDdEOyIgZD0iTTAsMHYyNi4zNWgyNi45NFYwSDB6Ii8+JiN4YTsJCTwvZz4mI3hhOwkJPGcgaWQ9InNoYXBlNDI3Mi00IiB0cmFuc2Zvcm09InRyYW5zbGF0ZSg2LjczMzg0LC0zLjY3NjE4KSI+JiN4YTsJCQk8dGl0bGUgaWQ9InRpdGxlMTAzNDUxIj5TaGVldC40MjcyPC90aXRsZT4mI3hhOwkJCTxwYXRoIGlkPSJwYXRoMTAzNDUzIiBpbmtzY2FwZTpjb25uZWN0b3ItY3VydmF0dXJlPSIwIiBzdHlsZT0iZmlsbDojRkZGRkZGOyIgZD0iTTAsMTYuN3Y5LjY1aDE0LjA4di05LjgxSDkuNmwtMi42NCwzLjY0ICAgICBsLTIuNDUtMy42NEwwLDE2Ljd6Ii8+JiN4YTsJCTwvZz4mI3hhOwkJPGcgaWQ9InNoYXBlNDI3My02IiB0cmFuc2Zvcm09InRyYW5zbGF0ZSg5LjE4MjUxLC0xNC4wOTIpIj4mI3hhOwkJCTx0aXRsZSBpZD0idGl0bGUxMDM0NTYiPlNoZWV0LjQyNzM8L3RpdGxlPiYjeGE7CQkJPHBhdGggaWQ9InBhdGgxMDM0NTgiIGlua3NjYXBlOmNvbm5lY3Rvci1jdXJ2YXR1cmU9IjAiIHN0eWxlPSJmaWxsOiNGRkZGRkY7IiBkPSJNMCwyMS43NWMwLTIuNTMsMi4wNy00LjU5LDQuNTktNC41OSAgICAgYzIuNTYsMCw0LjU5LDIuMDYsNC41OSw0LjU5YzAsMi41Ny0yLjAzLDQuNi00LjU5LDQuNkMyLjA3LDI2LjM1LDAsMjQuMzIsMCwyMS43NXoiLz4mI3hhOwkJPC9nPiYjeGE7CTwvZz4mI3hhOzwvZz4mI3hhOzwvc3ZnPg==;" parent="1" vertex="1">
          <mxGeometry x="360" y="280" width="27" height="26" as="geometry"/>
        </mxCell>
        <mxCell id="Z4ph5W7fdQSffsLZYVWT-7" value="" style="shape=image;verticalLabelPosition=bottom;labelBackgroundColor=#ffffff;verticalAlign=top;aspect=fixed;imageAspect=0;image=data:image/svg+xml,PHN2ZyB4bWxuczpjYz0iaHR0cDovL2NyZWF0aXZlY29tbW9ucy5vcmcvbnMjIiB4bWxuczpkYz0iaHR0cDovL3B1cmwub3JnL2RjL2VsZW1lbnRzLzEuMS8iIHhtbG5zOmlua3NjYXBlPSJodHRwOi8vd3d3Lmlua3NjYXBlLm9yZy9uYW1lc3BhY2VzL2lua3NjYXBlIiB4bWxuczpyZGY9Imh0dHA6Ly93d3cudzMub3JnLzE5OTkvMDIvMjItcmRmLXN5bnRheC1ucyMiIHhtbG5zOnNvZGlwb2RpPSJodHRwOi8vc29kaXBvZGkuc291cmNlZm9yZ2UubmV0L0RURC9zb2RpcG9kaS0wLmR0ZCIgeG1sbnM6c3ZnPSJodHRwOi8vd3d3LnczLm9yZy8yMDAwL3N2ZyIgeG1sbnM9Imh0dHA6Ly93d3cudzMub3JnLzIwMDAvc3ZnIiB4bWxuczp4bGluaz0iaHR0cDovL3d3dy53My5vcmcvMTk5OS94bGluayIgdmVyc2lvbj0iMS4xIiBpZD0ic3ZnMTAzNDY0IiBpbmtzY2FwZTp2ZXJzaW9uPSIwLjkyLjMgKDI0MDU1NDYsIDIwMTgtMDMtMTEpIiBzb2RpcG9kaTpkb2NuYW1lPSJ2c19vbmxpbmVfdGVhbV9tZW1iZXJzLnN2ZyIgeD0iMHB4IiB5PSIwcHgiIHZpZXdCb3g9IjAgMCAyNi45NCAyNi4zNSIgc3R5bGU9ImVuYWJsZS1iYWNrZ3JvdW5kOm5ldyAwIDAgMjYuOTQgMjYuMzU7IiB4bWw6c3BhY2U9InByZXNlcnZlIj4mI3hhOzxzb2RpcG9kaTpuYW1lZHZpZXcgYm9yZGVyY29sb3I9IiM2NjY2NjYiIGJvcmRlcm9wYWNpdHk9IjEiIGZpdC1tYXJnaW4tYm90dG9tPSIwIiBmaXQtbWFyZ2luLWxlZnQ9IjAiIGZpdC1tYXJnaW4tcmlnaHQ9IjAiIGZpdC1tYXJnaW4tdG9wPSIwIiBncmlkdG9sZXJhbmNlPSIxMCIgZ3VpZGV0b2xlcmFuY2U9IjEwIiBpZD0ibmFtZWR2aWV3MTAzNDY2IiBpbmtzY2FwZTpjdXJyZW50LWxheWVyPSJzdmcxMDM0NjQiIGlua3NjYXBlOmN4PSIyMC45NjQyOTMiIGlua3NjYXBlOmN5PSIxNC4zMzg2NTYiIGlua3NjYXBlOnBhZ2VvcGFjaXR5PSIwIiBpbmtzY2FwZTpwYWdlc2hhZG93PSIyIiBpbmtzY2FwZTp3aW5kb3ctaGVpZ2h0PSIxMDE3IiBpbmtzY2FwZTp3aW5kb3ctbWF4aW1pemVkPSIxIiBpbmtzY2FwZTp3aW5kb3ctd2lkdGg9IjE5MjAiIGlua3NjYXBlOndpbmRvdy14PSItOCIgaW5rc2NhcGU6d2luZG93LXk9Ii04IiBpbmtzY2FwZTp6b29tPSIxNy40NTIyNTEiIG9iamVjdHRvbGVyYW5jZT0iMTAiIHBhZ2Vjb2xvcj0iI2ZmZmZmZiIgc2hvd2dyaWQ9ImZhbHNlIj4mI3hhOwk8L3NvZGlwb2RpOm5hbWVkdmlldz4mI3hhOzxnIGlkPSJnMTAzNDYyIj4mI3hhOwk8dGl0bGUgaWQ9InRpdGxlMTAzNDQyIj5QYWdlLTE8L3RpdGxlPiYjeGE7CTxnIGlkPSJncm91cDQyNzAtMSI+JiN4YTsJCTx0aXRsZSBpZD0idGl0bGUxMDM0NDQiPlZTIE9ubGluZSAtIFRlYW0gTWVtYmVyczwvdGl0bGU+JiN4YTsJCTxnIGlkPSJzaGFwZTQyNzEtMiI+JiN4YTsJCQk8dGl0bGUgaWQ9InRpdGxlMTAzNDQ2Ij5TaGVldC40MjcxPC90aXRsZT4mI3hhOwkJCTxwYXRoIGlkPSJwYXRoMTAzNDQ4IiBpbmtzY2FwZTpjb25uZWN0b3ItY3VydmF0dXJlPSIwIiBzdHlsZT0iZmlsbDojN0Q3RDdEOyIgZD0iTTAsMHYyNi4zNWgyNi45NFYwSDB6Ii8+JiN4YTsJCTwvZz4mI3hhOwkJPGcgaWQ9InNoYXBlNDI3Mi00IiB0cmFuc2Zvcm09InRyYW5zbGF0ZSg2LjczMzg0LC0zLjY3NjE4KSI+JiN4YTsJCQk8dGl0bGUgaWQ9InRpdGxlMTAzNDUxIj5TaGVldC40MjcyPC90aXRsZT4mI3hhOwkJCTxwYXRoIGlkPSJwYXRoMTAzNDUzIiBpbmtzY2FwZTpjb25uZWN0b3ItY3VydmF0dXJlPSIwIiBzdHlsZT0iZmlsbDojRkZGRkZGOyIgZD0iTTAsMTYuN3Y5LjY1aDE0LjA4di05LjgxSDkuNmwtMi42NCwzLjY0ICAgICBsLTIuNDUtMy42NEwwLDE2Ljd6Ii8+JiN4YTsJCTwvZz4mI3hhOwkJPGcgaWQ9InNoYXBlNDI3My02IiB0cmFuc2Zvcm09InRyYW5zbGF0ZSg5LjE4MjUxLC0xNC4wOTIpIj4mI3hhOwkJCTx0aXRsZSBpZD0idGl0bGUxMDM0NTYiPlNoZWV0LjQyNzM8L3RpdGxlPiYjeGE7CQkJPHBhdGggaWQ9InBhdGgxMDM0NTgiIGlua3NjYXBlOmNvbm5lY3Rvci1jdXJ2YXR1cmU9IjAiIHN0eWxlPSJmaWxsOiNGRkZGRkY7IiBkPSJNMCwyMS43NWMwLTIuNTMsMi4wNy00LjU5LDQuNTktNC41OSAgICAgYzIuNTYsMCw0LjU5LDIuMDYsNC41OSw0LjU5YzAsMi41Ny0yLjAzLDQuNi00LjU5LDQuNkMyLjA3LDI2LjM1LDAsMjQuMzIsMCwyMS43NXoiLz4mI3hhOwkJPC9nPiYjeGE7CTwvZz4mI3hhOzwvZz4mI3hhOzwvc3ZnPg==;" parent="1" vertex="1">
          <mxGeometry x="910" y="244" width="27" height="26" as="geometry"/>
        </mxCell>
        <mxCell id="Z4ph5W7fdQSffsLZYVWT-8" value="" style="shape=image;verticalLabelPosition=bottom;labelBackgroundColor=#ffffff;verticalAlign=top;aspect=fixed;imageAspect=0;image=data:image/svg+xml,PHN2ZyB4bWxuczpjYz0iaHR0cDovL2NyZWF0aXZlY29tbW9ucy5vcmcvbnMjIiB4bWxuczpkYz0iaHR0cDovL3B1cmwub3JnL2RjL2VsZW1lbnRzLzEuMS8iIHhtbG5zOmlua3NjYXBlPSJodHRwOi8vd3d3Lmlua3NjYXBlLm9yZy9uYW1lc3BhY2VzL2lua3NjYXBlIiB4bWxuczpyZGY9Imh0dHA6Ly93d3cudzMub3JnLzE5OTkvMDIvMjItcmRmLXN5bnRheC1ucyMiIHhtbG5zOnNvZGlwb2RpPSJodHRwOi8vc29kaXBvZGkuc291cmNlZm9yZ2UubmV0L0RURC9zb2RpcG9kaS0wLmR0ZCIgeG1sbnM6c3ZnPSJodHRwOi8vd3d3LnczLm9yZy8yMDAwL3N2ZyIgeG1sbnM9Imh0dHA6Ly93d3cudzMub3JnLzIwMDAvc3ZnIiB4bWxuczp4bGluaz0iaHR0cDovL3d3dy53My5vcmcvMTk5OS94bGluayIgdmVyc2lvbj0iMS4xIiBpZD0ic3ZnMTAzNDY0IiBpbmtzY2FwZTp2ZXJzaW9uPSIwLjkyLjMgKDI0MDU1NDYsIDIwMTgtMDMtMTEpIiBzb2RpcG9kaTpkb2NuYW1lPSJ2c19vbmxpbmVfdGVhbV9tZW1iZXJzLnN2ZyIgeD0iMHB4IiB5PSIwcHgiIHZpZXdCb3g9IjAgMCAyNi45NCAyNi4zNSIgc3R5bGU9ImVuYWJsZS1iYWNrZ3JvdW5kOm5ldyAwIDAgMjYuOTQgMjYuMzU7IiB4bWw6c3BhY2U9InByZXNlcnZlIj4mI3hhOzxzb2RpcG9kaTpuYW1lZHZpZXcgYm9yZGVyY29sb3I9IiM2NjY2NjYiIGJvcmRlcm9wYWNpdHk9IjEiIGZpdC1tYXJnaW4tYm90dG9tPSIwIiBmaXQtbWFyZ2luLWxlZnQ9IjAiIGZpdC1tYXJnaW4tcmlnaHQ9IjAiIGZpdC1tYXJnaW4tdG9wPSIwIiBncmlkdG9sZXJhbmNlPSIxMCIgZ3VpZGV0b2xlcmFuY2U9IjEwIiBpZD0ibmFtZWR2aWV3MTAzNDY2IiBpbmtzY2FwZTpjdXJyZW50LWxheWVyPSJzdmcxMDM0NjQiIGlua3NjYXBlOmN4PSIyMC45NjQyOTMiIGlua3NjYXBlOmN5PSIxNC4zMzg2NTYiIGlua3NjYXBlOnBhZ2VvcGFjaXR5PSIwIiBpbmtzY2FwZTpwYWdlc2hhZG93PSIyIiBpbmtzY2FwZTp3aW5kb3ctaGVpZ2h0PSIxMDE3IiBpbmtzY2FwZTp3aW5kb3ctbWF4aW1pemVkPSIxIiBpbmtzY2FwZTp3aW5kb3ctd2lkdGg9IjE5MjAiIGlua3NjYXBlOndpbmRvdy14PSItOCIgaW5rc2NhcGU6d2luZG93LXk9Ii04IiBpbmtzY2FwZTp6b29tPSIxNy40NTIyNTEiIG9iamVjdHRvbGVyYW5jZT0iMTAiIHBhZ2Vjb2xvcj0iI2ZmZmZmZiIgc2hvd2dyaWQ9ImZhbHNlIj4mI3hhOwk8L3NvZGlwb2RpOm5hbWVkdmlldz4mI3hhOzxnIGlkPSJnMTAzNDYyIj4mI3hhOwk8dGl0bGUgaWQ9InRpdGxlMTAzNDQyIj5QYWdlLTE8L3RpdGxlPiYjeGE7CTxnIGlkPSJncm91cDQyNzAtMSI+JiN4YTsJCTx0aXRsZSBpZD0idGl0bGUxMDM0NDQiPlZTIE9ubGluZSAtIFRlYW0gTWVtYmVyczwvdGl0bGU+JiN4YTsJCTxnIGlkPSJzaGFwZTQyNzEtMiI+JiN4YTsJCQk8dGl0bGUgaWQ9InRpdGxlMTAzNDQ2Ij5TaGVldC40MjcxPC90aXRsZT4mI3hhOwkJCTxwYXRoIGlkPSJwYXRoMTAzNDQ4IiBpbmtzY2FwZTpjb25uZWN0b3ItY3VydmF0dXJlPSIwIiBzdHlsZT0iZmlsbDojN0Q3RDdEOyIgZD0iTTAsMHYyNi4zNWgyNi45NFYwSDB6Ii8+JiN4YTsJCTwvZz4mI3hhOwkJPGcgaWQ9InNoYXBlNDI3Mi00IiB0cmFuc2Zvcm09InRyYW5zbGF0ZSg2LjczMzg0LC0zLjY3NjE4KSI+JiN4YTsJCQk8dGl0bGUgaWQ9InRpdGxlMTAzNDUxIj5TaGVldC40MjcyPC90aXRsZT4mI3hhOwkJCTxwYXRoIGlkPSJwYXRoMTAzNDUzIiBpbmtzY2FwZTpjb25uZWN0b3ItY3VydmF0dXJlPSIwIiBzdHlsZT0iZmlsbDojRkZGRkZGOyIgZD0iTTAsMTYuN3Y5LjY1aDE0LjA4di05LjgxSDkuNmwtMi42NCwzLjY0ICAgICBsLTIuNDUtMy42NEwwLDE2Ljd6Ii8+JiN4YTsJCTwvZz4mI3hhOwkJPGcgaWQ9InNoYXBlNDI3My02IiB0cmFuc2Zvcm09InRyYW5zbGF0ZSg5LjE4MjUxLC0xNC4wOTIpIj4mI3hhOwkJCTx0aXRsZSBpZD0idGl0bGUxMDM0NTYiPlNoZWV0LjQyNzM8L3RpdGxlPiYjeGE7CQkJPHBhdGggaWQ9InBhdGgxMDM0NTgiIGlua3NjYXBlOmNvbm5lY3Rvci1jdXJ2YXR1cmU9IjAiIHN0eWxlPSJmaWxsOiNGRkZGRkY7IiBkPSJNMCwyMS43NWMwLTIuNTMsMi4wNy00LjU5LDQuNTktNC41OSAgICAgYzIuNTYsMCw0LjU5LDIuMDYsNC41OSw0LjU5YzAsMi41Ny0yLjAzLDQuNi00LjU5LDQuNkMyLjA3LDI2LjM1LDAsMjQuMzIsMCwyMS43NXoiLz4mI3hhOwkJPC9nPiYjeGE7CTwvZz4mI3hhOzwvZz4mI3hhOzwvc3ZnPg==;" parent="1" vertex="1">
          <mxGeometry x="991" y="191" width="27" height="26" as="geometry"/>
        </mxCell>
        <mxCell id="Z4ph5W7fdQSffsLZYVWT-9" value="" style="shape=image;verticalLabelPosition=bottom;labelBackgroundColor=#ffffff;verticalAlign=top;aspect=fixed;imageAspect=0;image=data:image/svg+xml,PHN2ZyB4bWxuczpjYz0iaHR0cDovL2NyZWF0aXZlY29tbW9ucy5vcmcvbnMjIiB4bWxuczpkYz0iaHR0cDovL3B1cmwub3JnL2RjL2VsZW1lbnRzLzEuMS8iIHhtbG5zOmlua3NjYXBlPSJodHRwOi8vd3d3Lmlua3NjYXBlLm9yZy9uYW1lc3BhY2VzL2lua3NjYXBlIiB4bWxuczpyZGY9Imh0dHA6Ly93d3cudzMub3JnLzE5OTkvMDIvMjItcmRmLXN5bnRheC1ucyMiIHhtbG5zOnNvZGlwb2RpPSJodHRwOi8vc29kaXBvZGkuc291cmNlZm9yZ2UubmV0L0RURC9zb2RpcG9kaS0wLmR0ZCIgeG1sbnM6c3ZnPSJodHRwOi8vd3d3LnczLm9yZy8yMDAwL3N2ZyIgeG1sbnM9Imh0dHA6Ly93d3cudzMub3JnLzIwMDAvc3ZnIiB4bWxuczp4bGluaz0iaHR0cDovL3d3dy53My5vcmcvMTk5OS94bGluayIgdmVyc2lvbj0iMS4xIiBpZD0ic3ZnMTAzNDY0IiBpbmtzY2FwZTp2ZXJzaW9uPSIwLjkyLjMgKDI0MDU1NDYsIDIwMTgtMDMtMTEpIiBzb2RpcG9kaTpkb2NuYW1lPSJ2c19vbmxpbmVfdGVhbV9tZW1iZXJzLnN2ZyIgeD0iMHB4IiB5PSIwcHgiIHZpZXdCb3g9IjAgMCAyNi45NCAyNi4zNSIgc3R5bGU9ImVuYWJsZS1iYWNrZ3JvdW5kOm5ldyAwIDAgMjYuOTQgMjYuMzU7IiB4bWw6c3BhY2U9InByZXNlcnZlIj4mI3hhOzxzb2RpcG9kaTpuYW1lZHZpZXcgYm9yZGVyY29sb3I9IiM2NjY2NjYiIGJvcmRlcm9wYWNpdHk9IjEiIGZpdC1tYXJnaW4tYm90dG9tPSIwIiBmaXQtbWFyZ2luLWxlZnQ9IjAiIGZpdC1tYXJnaW4tcmlnaHQ9IjAiIGZpdC1tYXJnaW4tdG9wPSIwIiBncmlkdG9sZXJhbmNlPSIxMCIgZ3VpZGV0b2xlcmFuY2U9IjEwIiBpZD0ibmFtZWR2aWV3MTAzNDY2IiBpbmtzY2FwZTpjdXJyZW50LWxheWVyPSJzdmcxMDM0NjQiIGlua3NjYXBlOmN4PSIyMC45NjQyOTMiIGlua3NjYXBlOmN5PSIxNC4zMzg2NTYiIGlua3NjYXBlOnBhZ2VvcGFjaXR5PSIwIiBpbmtzY2FwZTpwYWdlc2hhZG93PSIyIiBpbmtzY2FwZTp3aW5kb3ctaGVpZ2h0PSIxMDE3IiBpbmtzY2FwZTp3aW5kb3ctbWF4aW1pemVkPSIxIiBpbmtzY2FwZTp3aW5kb3ctd2lkdGg9IjE5MjAiIGlua3NjYXBlOndpbmRvdy14PSItOCIgaW5rc2NhcGU6d2luZG93LXk9Ii04IiBpbmtzY2FwZTp6b29tPSIxNy40NTIyNTEiIG9iamVjdHRvbGVyYW5jZT0iMTAiIHBhZ2Vjb2xvcj0iI2ZmZmZmZiIgc2hvd2dyaWQ9ImZhbHNlIj4mI3hhOwk8L3NvZGlwb2RpOm5hbWVkdmlldz4mI3hhOzxnIGlkPSJnMTAzNDYyIj4mI3hhOwk8dGl0bGUgaWQ9InRpdGxlMTAzNDQyIj5QYWdlLTE8L3RpdGxlPiYjeGE7CTxnIGlkPSJncm91cDQyNzAtMSI+JiN4YTsJCTx0aXRsZSBpZD0idGl0bGUxMDM0NDQiPlZTIE9ubGluZSAtIFRlYW0gTWVtYmVyczwvdGl0bGU+JiN4YTsJCTxnIGlkPSJzaGFwZTQyNzEtMiI+JiN4YTsJCQk8dGl0bGUgaWQ9InRpdGxlMTAzNDQ2Ij5TaGVldC40MjcxPC90aXRsZT4mI3hhOwkJCTxwYXRoIGlkPSJwYXRoMTAzNDQ4IiBpbmtzY2FwZTpjb25uZWN0b3ItY3VydmF0dXJlPSIwIiBzdHlsZT0iZmlsbDojN0Q3RDdEOyIgZD0iTTAsMHYyNi4zNWgyNi45NFYwSDB6Ii8+JiN4YTsJCTwvZz4mI3hhOwkJPGcgaWQ9InNoYXBlNDI3Mi00IiB0cmFuc2Zvcm09InRyYW5zbGF0ZSg2LjczMzg0LC0zLjY3NjE4KSI+JiN4YTsJCQk8dGl0bGUgaWQ9InRpdGxlMTAzNDUxIj5TaGVldC40MjcyPC90aXRsZT4mI3hhOwkJCTxwYXRoIGlkPSJwYXRoMTAzNDUzIiBpbmtzY2FwZTpjb25uZWN0b3ItY3VydmF0dXJlPSIwIiBzdHlsZT0iZmlsbDojRkZGRkZGOyIgZD0iTTAsMTYuN3Y5LjY1aDE0LjA4di05LjgxSDkuNmwtMi42NCwzLjY0ICAgICBsLTIuNDUtMy42NEwwLDE2Ljd6Ii8+JiN4YTsJCTwvZz4mI3hhOwkJPGcgaWQ9InNoYXBlNDI3My02IiB0cmFuc2Zvcm09InRyYW5zbGF0ZSg5LjE4MjUxLC0xNC4wOTIpIj4mI3hhOwkJCTx0aXRsZSBpZD0idGl0bGUxMDM0NTYiPlNoZWV0LjQyNzM8L3RpdGxlPiYjeGE7CQkJPHBhdGggaWQ9InBhdGgxMDM0NTgiIGlua3NjYXBlOmNvbm5lY3Rvci1jdXJ2YXR1cmU9IjAiIHN0eWxlPSJmaWxsOiNGRkZGRkY7IiBkPSJNMCwyMS43NWMwLTIuNTMsMi4wNy00LjU5LDQuNTktNC41OSAgICAgYzIuNTYsMCw0LjU5LDIuMDYsNC41OSw0LjU5YzAsMi41Ny0yLjAzLDQuNi00LjU5LDQuNkMyLjA3LDI2LjM1LDAsMjQuMzIsMCwyMS43NXoiLz4mI3hhOwkJPC9nPiYjeGE7CTwvZz4mI3hhOzwvZz4mI3hhOzwvc3ZnPg==;" parent="1" vertex="1">
          <mxGeometry x="1060" y="244" width="27" height="26" as="geometry"/>
        </mxCell>
        <mxCell id="Z4ph5W7fdQSffsLZYVWT-11" value="" style="shape=image;verticalLabelPosition=bottom;labelBackgroundColor=#ffffff;verticalAlign=top;aspect=fixed;imageAspect=0;image=data:image/svg+xml,PHN2ZyB4bWxuczpjYz0iaHR0cDovL2NyZWF0aXZlY29tbW9ucy5vcmcvbnMjIiB4bWxuczpkYz0iaHR0cDovL3B1cmwub3JnL2RjL2VsZW1lbnRzLzEuMS8iIHhtbG5zOmlua3NjYXBlPSJodHRwOi8vd3d3Lmlua3NjYXBlLm9yZy9uYW1lc3BhY2VzL2lua3NjYXBlIiB4bWxuczpyZGY9Imh0dHA6Ly93d3cudzMub3JnLzE5OTkvMDIvMjItcmRmLXN5bnRheC1ucyMiIHhtbG5zOnNvZGlwb2RpPSJodHRwOi8vc29kaXBvZGkuc291cmNlZm9yZ2UubmV0L0RURC9zb2RpcG9kaS0wLmR0ZCIgeG1sbnM6c3ZnPSJodHRwOi8vd3d3LnczLm9yZy8yMDAwL3N2ZyIgeG1sbnM9Imh0dHA6Ly93d3cudzMub3JnLzIwMDAvc3ZnIiB4bWxuczp4bGluaz0iaHR0cDovL3d3dy53My5vcmcvMTk5OS94bGluayIgdmVyc2lvbj0iMS4xIiBpZD0ic3ZnMTAzNDY0IiBpbmtzY2FwZTp2ZXJzaW9uPSIwLjkyLjMgKDI0MDU1NDYsIDIwMTgtMDMtMTEpIiBzb2RpcG9kaTpkb2NuYW1lPSJ2c19vbmxpbmVfdGVhbV9tZW1iZXJzLnN2ZyIgeD0iMHB4IiB5PSIwcHgiIHZpZXdCb3g9IjAgMCAyNi45NCAyNi4zNSIgc3R5bGU9ImVuYWJsZS1iYWNrZ3JvdW5kOm5ldyAwIDAgMjYuOTQgMjYuMzU7IiB4bWw6c3BhY2U9InByZXNlcnZlIj4mI3hhOzxzb2RpcG9kaTpuYW1lZHZpZXcgYm9yZGVyY29sb3I9IiM2NjY2NjYiIGJvcmRlcm9wYWNpdHk9IjEiIGZpdC1tYXJnaW4tYm90dG9tPSIwIiBmaXQtbWFyZ2luLWxlZnQ9IjAiIGZpdC1tYXJnaW4tcmlnaHQ9IjAiIGZpdC1tYXJnaW4tdG9wPSIwIiBncmlkdG9sZXJhbmNlPSIxMCIgZ3VpZGV0b2xlcmFuY2U9IjEwIiBpZD0ibmFtZWR2aWV3MTAzNDY2IiBpbmtzY2FwZTpjdXJyZW50LWxheWVyPSJzdmcxMDM0NjQiIGlua3NjYXBlOmN4PSIyMC45NjQyOTMiIGlua3NjYXBlOmN5PSIxNC4zMzg2NTYiIGlua3NjYXBlOnBhZ2VvcGFjaXR5PSIwIiBpbmtzY2FwZTpwYWdlc2hhZG93PSIyIiBpbmtzY2FwZTp3aW5kb3ctaGVpZ2h0PSIxMDE3IiBpbmtzY2FwZTp3aW5kb3ctbWF4aW1pemVkPSIxIiBpbmtzY2FwZTp3aW5kb3ctd2lkdGg9IjE5MjAiIGlua3NjYXBlOndpbmRvdy14PSItOCIgaW5rc2NhcGU6d2luZG93LXk9Ii04IiBpbmtzY2FwZTp6b29tPSIxNy40NTIyNTEiIG9iamVjdHRvbGVyYW5jZT0iMTAiIHBhZ2Vjb2xvcj0iI2ZmZmZmZiIgc2hvd2dyaWQ9ImZhbHNlIj4mI3hhOwk8L3NvZGlwb2RpOm5hbWVkdmlldz4mI3hhOzxnIGlkPSJnMTAzNDYyIj4mI3hhOwk8dGl0bGUgaWQ9InRpdGxlMTAzNDQyIj5QYWdlLTE8L3RpdGxlPiYjeGE7CTxnIGlkPSJncm91cDQyNzAtMSI+JiN4YTsJCTx0aXRsZSBpZD0idGl0bGUxMDM0NDQiPlZTIE9ubGluZSAtIFRlYW0gTWVtYmVyczwvdGl0bGU+JiN4YTsJCTxnIGlkPSJzaGFwZTQyNzEtMiI+JiN4YTsJCQk8dGl0bGUgaWQ9InRpdGxlMTAzNDQ2Ij5TaGVldC40MjcxPC90aXRsZT4mI3hhOwkJCTxwYXRoIGlkPSJwYXRoMTAzNDQ4IiBpbmtzY2FwZTpjb25uZWN0b3ItY3VydmF0dXJlPSIwIiBzdHlsZT0iZmlsbDojN0Q3RDdEOyIgZD0iTTAsMHYyNi4zNWgyNi45NFYwSDB6Ii8+JiN4YTsJCTwvZz4mI3hhOwkJPGcgaWQ9InNoYXBlNDI3Mi00IiB0cmFuc2Zvcm09InRyYW5zbGF0ZSg2LjczMzg0LC0zLjY3NjE4KSI+JiN4YTsJCQk8dGl0bGUgaWQ9InRpdGxlMTAzNDUxIj5TaGVldC40MjcyPC90aXRsZT4mI3hhOwkJCTxwYXRoIGlkPSJwYXRoMTAzNDUzIiBpbmtzY2FwZTpjb25uZWN0b3ItY3VydmF0dXJlPSIwIiBzdHlsZT0iZmlsbDojRkZGRkZGOyIgZD0iTTAsMTYuN3Y5LjY1aDE0LjA4di05LjgxSDkuNmwtMi42NCwzLjY0ICAgICBsLTIuNDUtMy42NEwwLDE2Ljd6Ii8+JiN4YTsJCTwvZz4mI3hhOwkJPGcgaWQ9InNoYXBlNDI3My02IiB0cmFuc2Zvcm09InRyYW5zbGF0ZSg5LjE4MjUxLC0xNC4wOTIpIj4mI3hhOwkJCTx0aXRsZSBpZD0idGl0bGUxMDM0NTYiPlNoZWV0LjQyNzM8L3RpdGxlPiYjeGE7CQkJPHBhdGggaWQ9InBhdGgxMDM0NTgiIGlua3NjYXBlOmNvbm5lY3Rvci1jdXJ2YXR1cmU9IjAiIHN0eWxlPSJmaWxsOiNGRkZGRkY7IiBkPSJNMCwyMS43NWMwLTIuNTMsMi4wNy00LjU5LDQuNTktNC41OSAgICAgYzIuNTYsMCw0LjU5LDIuMDYsNC41OSw0LjU5YzAsMi41Ny0yLjAzLDQuNi00LjU5LDQuNkMyLjA3LDI2LjM1LDAsMjQuMzIsMCwyMS43NXoiLz4mI3hhOwkJPC9nPiYjeGE7CTwvZz4mI3hhOzwvZz4mI3hhOzwvc3ZnPg==;" parent="1" vertex="1">
          <mxGeometry x="520" y="313.5" width="27" height="26" as="geometry"/>
        </mxCell>
        <mxCell id="Z4ph5W7fdQSffsLZYVWT-12" value="" style="shape=image;verticalLabelPosition=bottom;labelBackgroundColor=#ffffff;verticalAlign=top;aspect=fixed;imageAspect=0;image=data:image/svg+xml,PHN2ZyB4bWxuczpjYz0iaHR0cDovL2NyZWF0aXZlY29tbW9ucy5vcmcvbnMjIiB4bWxuczpkYz0iaHR0cDovL3B1cmwub3JnL2RjL2VsZW1lbnRzLzEuMS8iIHhtbG5zOmlua3NjYXBlPSJodHRwOi8vd3d3Lmlua3NjYXBlLm9yZy9uYW1lc3BhY2VzL2lua3NjYXBlIiB4bWxuczpyZGY9Imh0dHA6Ly93d3cudzMub3JnLzE5OTkvMDIvMjItcmRmLXN5bnRheC1ucyMiIHhtbG5zOnNvZGlwb2RpPSJodHRwOi8vc29kaXBvZGkuc291cmNlZm9yZ2UubmV0L0RURC9zb2RpcG9kaS0wLmR0ZCIgeG1sbnM6c3ZnPSJodHRwOi8vd3d3LnczLm9yZy8yMDAwL3N2ZyIgeG1sbnM9Imh0dHA6Ly93d3cudzMub3JnLzIwMDAvc3ZnIiB4bWxuczp4bGluaz0iaHR0cDovL3d3dy53My5vcmcvMTk5OS94bGluayIgdmVyc2lvbj0iMS4xIiBpZD0ic3ZnMTAzNDY0IiBpbmtzY2FwZTp2ZXJzaW9uPSIwLjkyLjMgKDI0MDU1NDYsIDIwMTgtMDMtMTEpIiBzb2RpcG9kaTpkb2NuYW1lPSJ2c19vbmxpbmVfdGVhbV9tZW1iZXJzLnN2ZyIgeD0iMHB4IiB5PSIwcHgiIHZpZXdCb3g9IjAgMCAyNi45NCAyNi4zNSIgc3R5bGU9ImVuYWJsZS1iYWNrZ3JvdW5kOm5ldyAwIDAgMjYuOTQgMjYuMzU7IiB4bWw6c3BhY2U9InByZXNlcnZlIj4mI3hhOzxzb2RpcG9kaTpuYW1lZHZpZXcgYm9yZGVyY29sb3I9IiM2NjY2NjYiIGJvcmRlcm9wYWNpdHk9IjEiIGZpdC1tYXJnaW4tYm90dG9tPSIwIiBmaXQtbWFyZ2luLWxlZnQ9IjAiIGZpdC1tYXJnaW4tcmlnaHQ9IjAiIGZpdC1tYXJnaW4tdG9wPSIwIiBncmlkdG9sZXJhbmNlPSIxMCIgZ3VpZGV0b2xlcmFuY2U9IjEwIiBpZD0ibmFtZWR2aWV3MTAzNDY2IiBpbmtzY2FwZTpjdXJyZW50LWxheWVyPSJzdmcxMDM0NjQiIGlua3NjYXBlOmN4PSIyMC45NjQyOTMiIGlua3NjYXBlOmN5PSIxNC4zMzg2NTYiIGlua3NjYXBlOnBhZ2VvcGFjaXR5PSIwIiBpbmtzY2FwZTpwYWdlc2hhZG93PSIyIiBpbmtzY2FwZTp3aW5kb3ctaGVpZ2h0PSIxMDE3IiBpbmtzY2FwZTp3aW5kb3ctbWF4aW1pemVkPSIxIiBpbmtzY2FwZTp3aW5kb3ctd2lkdGg9IjE5MjAiIGlua3NjYXBlOndpbmRvdy14PSItOCIgaW5rc2NhcGU6d2luZG93LXk9Ii04IiBpbmtzY2FwZTp6b29tPSIxNy40NTIyNTEiIG9iamVjdHRvbGVyYW5jZT0iMTAiIHBhZ2Vjb2xvcj0iI2ZmZmZmZiIgc2hvd2dyaWQ9ImZhbHNlIj4mI3hhOwk8L3NvZGlwb2RpOm5hbWVkdmlldz4mI3hhOzxnIGlkPSJnMTAzNDYyIj4mI3hhOwk8dGl0bGUgaWQ9InRpdGxlMTAzNDQyIj5QYWdlLTE8L3RpdGxlPiYjeGE7CTxnIGlkPSJncm91cDQyNzAtMSI+JiN4YTsJCTx0aXRsZSBpZD0idGl0bGUxMDM0NDQiPlZTIE9ubGluZSAtIFRlYW0gTWVtYmVyczwvdGl0bGU+JiN4YTsJCTxnIGlkPSJzaGFwZTQyNzEtMiI+JiN4YTsJCQk8dGl0bGUgaWQ9InRpdGxlMTAzNDQ2Ij5TaGVldC40MjcxPC90aXRsZT4mI3hhOwkJCTxwYXRoIGlkPSJwYXRoMTAzNDQ4IiBpbmtzY2FwZTpjb25uZWN0b3ItY3VydmF0dXJlPSIwIiBzdHlsZT0iZmlsbDojN0Q3RDdEOyIgZD0iTTAsMHYyNi4zNWgyNi45NFYwSDB6Ii8+JiN4YTsJCTwvZz4mI3hhOwkJPGcgaWQ9InNoYXBlNDI3Mi00IiB0cmFuc2Zvcm09InRyYW5zbGF0ZSg2LjczMzg0LC0zLjY3NjE4KSI+JiN4YTsJCQk8dGl0bGUgaWQ9InRpdGxlMTAzNDUxIj5TaGVldC40MjcyPC90aXRsZT4mI3hhOwkJCTxwYXRoIGlkPSJwYXRoMTAzNDUzIiBpbmtzY2FwZTpjb25uZWN0b3ItY3VydmF0dXJlPSIwIiBzdHlsZT0iZmlsbDojRkZGRkZGOyIgZD0iTTAsMTYuN3Y5LjY1aDE0LjA4di05LjgxSDkuNmwtMi42NCwzLjY0ICAgICBsLTIuNDUtMy42NEwwLDE2Ljd6Ii8+JiN4YTsJCTwvZz4mI3hhOwkJPGcgaWQ9InNoYXBlNDI3My02IiB0cmFuc2Zvcm09InRyYW5zbGF0ZSg5LjE4MjUxLC0xNC4wOTIpIj4mI3hhOwkJCTx0aXRsZSBpZD0idGl0bGUxMDM0NTYiPlNoZWV0LjQyNzM8L3RpdGxlPiYjeGE7CQkJPHBhdGggaWQ9InBhdGgxMDM0NTgiIGlua3NjYXBlOmNvbm5lY3Rvci1jdXJ2YXR1cmU9IjAiIHN0eWxlPSJmaWxsOiNGRkZGRkY7IiBkPSJNMCwyMS43NWMwLTIuNTMsMi4wNy00LjU5LDQuNTktNC41OSAgICAgYzIuNTYsMCw0LjU5LDIuMDYsNC41OSw0LjU5YzAsMi41Ny0yLjAzLDQuNi00LjU5LDQuNkMyLjA3LDI2LjM1LDAsMjQuMzIsMCwyMS43NXoiLz4mI3hhOwkJPC9nPiYjeGE7CTwvZz4mI3hhOzwvZz4mI3hhOzwvc3ZnPg==;" parent="1" vertex="1">
          <mxGeometry x="564" y="237" width="27" height="26" as="geometry"/>
        </mxCell>
        <mxCell id="Z4ph5W7fdQSffsLZYVWT-13" value="" style="shape=image;verticalLabelPosition=bottom;labelBackgroundColor=#ffffff;verticalAlign=top;aspect=fixed;imageAspect=0;image=data:image/svg+xml,PHN2ZyB4bWxuczpjYz0iaHR0cDovL2NyZWF0aXZlY29tbW9ucy5vcmcvbnMjIiB4bWxuczpkYz0iaHR0cDovL3B1cmwub3JnL2RjL2VsZW1lbnRzLzEuMS8iIHhtbG5zOmlua3NjYXBlPSJodHRwOi8vd3d3Lmlua3NjYXBlLm9yZy9uYW1lc3BhY2VzL2lua3NjYXBlIiB4bWxuczpyZGY9Imh0dHA6Ly93d3cudzMub3JnLzE5OTkvMDIvMjItcmRmLXN5bnRheC1ucyMiIHhtbG5zOnNvZGlwb2RpPSJodHRwOi8vc29kaXBvZGkuc291cmNlZm9yZ2UubmV0L0RURC9zb2RpcG9kaS0wLmR0ZCIgeG1sbnM6c3ZnPSJodHRwOi8vd3d3LnczLm9yZy8yMDAwL3N2ZyIgeG1sbnM9Imh0dHA6Ly93d3cudzMub3JnLzIwMDAvc3ZnIiB4bWxuczp4bGluaz0iaHR0cDovL3d3dy53My5vcmcvMTk5OS94bGluayIgdmVyc2lvbj0iMS4xIiBpZD0ic3ZnMTAzNDY0IiBpbmtzY2FwZTp2ZXJzaW9uPSIwLjkyLjMgKDI0MDU1NDYsIDIwMTgtMDMtMTEpIiBzb2RpcG9kaTpkb2NuYW1lPSJ2c19vbmxpbmVfdGVhbV9tZW1iZXJzLnN2ZyIgeD0iMHB4IiB5PSIwcHgiIHZpZXdCb3g9IjAgMCAyNi45NCAyNi4zNSIgc3R5bGU9ImVuYWJsZS1iYWNrZ3JvdW5kOm5ldyAwIDAgMjYuOTQgMjYuMzU7IiB4bWw6c3BhY2U9InByZXNlcnZlIj4mI3hhOzxzb2RpcG9kaTpuYW1lZHZpZXcgYm9yZGVyY29sb3I9IiM2NjY2NjYiIGJvcmRlcm9wYWNpdHk9IjEiIGZpdC1tYXJnaW4tYm90dG9tPSIwIiBmaXQtbWFyZ2luLWxlZnQ9IjAiIGZpdC1tYXJnaW4tcmlnaHQ9IjAiIGZpdC1tYXJnaW4tdG9wPSIwIiBncmlkdG9sZXJhbmNlPSIxMCIgZ3VpZGV0b2xlcmFuY2U9IjEwIiBpZD0ibmFtZWR2aWV3MTAzNDY2IiBpbmtzY2FwZTpjdXJyZW50LWxheWVyPSJzdmcxMDM0NjQiIGlua3NjYXBlOmN4PSIyMC45NjQyOTMiIGlua3NjYXBlOmN5PSIxNC4zMzg2NTYiIGlua3NjYXBlOnBhZ2VvcGFjaXR5PSIwIiBpbmtzY2FwZTpwYWdlc2hhZG93PSIyIiBpbmtzY2FwZTp3aW5kb3ctaGVpZ2h0PSIxMDE3IiBpbmtzY2FwZTp3aW5kb3ctbWF4aW1pemVkPSIxIiBpbmtzY2FwZTp3aW5kb3ctd2lkdGg9IjE5MjAiIGlua3NjYXBlOndpbmRvdy14PSItOCIgaW5rc2NhcGU6d2luZG93LXk9Ii04IiBpbmtzY2FwZTp6b29tPSIxNy40NTIyNTEiIG9iamVjdHRvbGVyYW5jZT0iMTAiIHBhZ2Vjb2xvcj0iI2ZmZmZmZiIgc2hvd2dyaWQ9ImZhbHNlIj4mI3hhOwk8L3NvZGlwb2RpOm5hbWVkdmlldz4mI3hhOzxnIGlkPSJnMTAzNDYyIj4mI3hhOwk8dGl0bGUgaWQ9InRpdGxlMTAzNDQyIj5QYWdlLTE8L3RpdGxlPiYjeGE7CTxnIGlkPSJncm91cDQyNzAtMSI+JiN4YTsJCTx0aXRsZSBpZD0idGl0bGUxMDM0NDQiPlZTIE9ubGluZSAtIFRlYW0gTWVtYmVyczwvdGl0bGU+JiN4YTsJCTxnIGlkPSJzaGFwZTQyNzEtMiI+JiN4YTsJCQk8dGl0bGUgaWQ9InRpdGxlMTAzNDQ2Ij5TaGVldC40MjcxPC90aXRsZT4mI3hhOwkJCTxwYXRoIGlkPSJwYXRoMTAzNDQ4IiBpbmtzY2FwZTpjb25uZWN0b3ItY3VydmF0dXJlPSIwIiBzdHlsZT0iZmlsbDojN0Q3RDdEOyIgZD0iTTAsMHYyNi4zNWgyNi45NFYwSDB6Ii8+JiN4YTsJCTwvZz4mI3hhOwkJPGcgaWQ9InNoYXBlNDI3Mi00IiB0cmFuc2Zvcm09InRyYW5zbGF0ZSg2LjczMzg0LC0zLjY3NjE4KSI+JiN4YTsJCQk8dGl0bGUgaWQ9InRpdGxlMTAzNDUxIj5TaGVldC40MjcyPC90aXRsZT4mI3hhOwkJCTxwYXRoIGlkPSJwYXRoMTAzNDUzIiBpbmtzY2FwZTpjb25uZWN0b3ItY3VydmF0dXJlPSIwIiBzdHlsZT0iZmlsbDojRkZGRkZGOyIgZD0iTTAsMTYuN3Y5LjY1aDE0LjA4di05LjgxSDkuNmwtMi42NCwzLjY0ICAgICBsLTIuNDUtMy42NEwwLDE2Ljd6Ii8+JiN4YTsJCTwvZz4mI3hhOwkJPGcgaWQ9InNoYXBlNDI3My02IiB0cmFuc2Zvcm09InRyYW5zbGF0ZSg5LjE4MjUxLC0xNC4wOTIpIj4mI3hhOwkJCTx0aXRsZSBpZD0idGl0bGUxMDM0NTYiPlNoZWV0LjQyNzM8L3RpdGxlPiYjeGE7CQkJPHBhdGggaWQ9InBhdGgxMDM0NTgiIGlua3NjYXBlOmNvbm5lY3Rvci1jdXJ2YXR1cmU9IjAiIHN0eWxlPSJmaWxsOiNGRkZGRkY7IiBkPSJNMCwyMS43NWMwLTIuNTMsMi4wNy00LjU5LDQuNTktNC41OSAgICAgYzIuNTYsMCw0LjU5LDIuMDYsNC41OSw0LjU5YzAsMi41Ny0yLjAzLDQuNi00LjU5LDQuNkMyLjA3LDI2LjM1LDAsMjQuMzIsMCwyMS43NXoiLz4mI3hhOwkJPC9nPiYjeGE7CTwvZz4mI3hhOzwvZz4mI3hhOzwvc3ZnPg==;" parent="1" vertex="1">
          <mxGeometry x="650.5" y="237" width="27" height="26" as="geometry"/>
        </mxCell>
        <mxCell id="Z4ph5W7fdQSffsLZYVWT-14" value="" style="shape=image;verticalLabelPosition=bottom;labelBackgroundColor=#ffffff;verticalAlign=top;aspect=fixed;imageAspect=0;image=data:image/svg+xml,PHN2ZyB4bWxuczpjYz0iaHR0cDovL2NyZWF0aXZlY29tbW9ucy5vcmcvbnMjIiB4bWxuczpkYz0iaHR0cDovL3B1cmwub3JnL2RjL2VsZW1lbnRzLzEuMS8iIHhtbG5zOmlua3NjYXBlPSJodHRwOi8vd3d3Lmlua3NjYXBlLm9yZy9uYW1lc3BhY2VzL2lua3NjYXBlIiB4bWxuczpyZGY9Imh0dHA6Ly93d3cudzMub3JnLzE5OTkvMDIvMjItcmRmLXN5bnRheC1ucyMiIHhtbG5zOnNvZGlwb2RpPSJodHRwOi8vc29kaXBvZGkuc291cmNlZm9yZ2UubmV0L0RURC9zb2RpcG9kaS0wLmR0ZCIgeG1sbnM6c3ZnPSJodHRwOi8vd3d3LnczLm9yZy8yMDAwL3N2ZyIgeG1sbnM9Imh0dHA6Ly93d3cudzMub3JnLzIwMDAvc3ZnIiB4bWxuczp4bGluaz0iaHR0cDovL3d3dy53My5vcmcvMTk5OS94bGluayIgdmVyc2lvbj0iMS4xIiBpZD0ic3ZnMTAzNDY0IiBpbmtzY2FwZTp2ZXJzaW9uPSIwLjkyLjMgKDI0MDU1NDYsIDIwMTgtMDMtMTEpIiBzb2RpcG9kaTpkb2NuYW1lPSJ2c19vbmxpbmVfdGVhbV9tZW1iZXJzLnN2ZyIgeD0iMHB4IiB5PSIwcHgiIHZpZXdCb3g9IjAgMCAyNi45NCAyNi4zNSIgc3R5bGU9ImVuYWJsZS1iYWNrZ3JvdW5kOm5ldyAwIDAgMjYuOTQgMjYuMzU7IiB4bWw6c3BhY2U9InByZXNlcnZlIj4mI3hhOzxzb2RpcG9kaTpuYW1lZHZpZXcgYm9yZGVyY29sb3I9IiM2NjY2NjYiIGJvcmRlcm9wYWNpdHk9IjEiIGZpdC1tYXJnaW4tYm90dG9tPSIwIiBmaXQtbWFyZ2luLWxlZnQ9IjAiIGZpdC1tYXJnaW4tcmlnaHQ9IjAiIGZpdC1tYXJnaW4tdG9wPSIwIiBncmlkdG9sZXJhbmNlPSIxMCIgZ3VpZGV0b2xlcmFuY2U9IjEwIiBpZD0ibmFtZWR2aWV3MTAzNDY2IiBpbmtzY2FwZTpjdXJyZW50LWxheWVyPSJzdmcxMDM0NjQiIGlua3NjYXBlOmN4PSIyMC45NjQyOTMiIGlua3NjYXBlOmN5PSIxNC4zMzg2NTYiIGlua3NjYXBlOnBhZ2VvcGFjaXR5PSIwIiBpbmtzY2FwZTpwYWdlc2hhZG93PSIyIiBpbmtzY2FwZTp3aW5kb3ctaGVpZ2h0PSIxMDE3IiBpbmtzY2FwZTp3aW5kb3ctbWF4aW1pemVkPSIxIiBpbmtzY2FwZTp3aW5kb3ctd2lkdGg9IjE5MjAiIGlua3NjYXBlOndpbmRvdy14PSItOCIgaW5rc2NhcGU6d2luZG93LXk9Ii04IiBpbmtzY2FwZTp6b29tPSIxNy40NTIyNTEiIG9iamVjdHRvbGVyYW5jZT0iMTAiIHBhZ2Vjb2xvcj0iI2ZmZmZmZiIgc2hvd2dyaWQ9ImZhbHNlIj4mI3hhOwk8L3NvZGlwb2RpOm5hbWVkdmlldz4mI3hhOzxnIGlkPSJnMTAzNDYyIj4mI3hhOwk8dGl0bGUgaWQ9InRpdGxlMTAzNDQyIj5QYWdlLTE8L3RpdGxlPiYjeGE7CTxnIGlkPSJncm91cDQyNzAtMSI+JiN4YTsJCTx0aXRsZSBpZD0idGl0bGUxMDM0NDQiPlZTIE9ubGluZSAtIFRlYW0gTWVtYmVyczwvdGl0bGU+JiN4YTsJCTxnIGlkPSJzaGFwZTQyNzEtMiI+JiN4YTsJCQk8dGl0bGUgaWQ9InRpdGxlMTAzNDQ2Ij5TaGVldC40MjcxPC90aXRsZT4mI3hhOwkJCTxwYXRoIGlkPSJwYXRoMTAzNDQ4IiBpbmtzY2FwZTpjb25uZWN0b3ItY3VydmF0dXJlPSIwIiBzdHlsZT0iZmlsbDojN0Q3RDdEOyIgZD0iTTAsMHYyNi4zNWgyNi45NFYwSDB6Ii8+JiN4YTsJCTwvZz4mI3hhOwkJPGcgaWQ9InNoYXBlNDI3Mi00IiB0cmFuc2Zvcm09InRyYW5zbGF0ZSg2LjczMzg0LC0zLjY3NjE4KSI+JiN4YTsJCQk8dGl0bGUgaWQ9InRpdGxlMTAzNDUxIj5TaGVldC40MjcyPC90aXRsZT4mI3hhOwkJCTxwYXRoIGlkPSJwYXRoMTAzNDUzIiBpbmtzY2FwZTpjb25uZWN0b3ItY3VydmF0dXJlPSIwIiBzdHlsZT0iZmlsbDojRkZGRkZGOyIgZD0iTTAsMTYuN3Y5LjY1aDE0LjA4di05LjgxSDkuNmwtMi42NCwzLjY0ICAgICBsLTIuNDUtMy42NEwwLDE2Ljd6Ii8+JiN4YTsJCTwvZz4mI3hhOwkJPGcgaWQ9InNoYXBlNDI3My02IiB0cmFuc2Zvcm09InRyYW5zbGF0ZSg5LjE4MjUxLC0xNC4wOTIpIj4mI3hhOwkJCTx0aXRsZSBpZD0idGl0bGUxMDM0NTYiPlNoZWV0LjQyNzM8L3RpdGxlPiYjeGE7CQkJPHBhdGggaWQ9InBhdGgxMDM0NTgiIGlua3NjYXBlOmNvbm5lY3Rvci1jdXJ2YXR1cmU9IjAiIHN0eWxlPSJmaWxsOiNGRkZGRkY7IiBkPSJNMCwyMS43NWMwLTIuNTMsMi4wNy00LjU5LDQuNTktNC41OSAgICAgYzIuNTYsMCw0LjU5LDIuMDYsNC41OSw0LjU5YzAsMi41Ny0yLjAzLDQuNi00LjU5LDQuNkMyLjA3LDI2LjM1LDAsMjQuMzIsMCwyMS43NXoiLz4mI3hhOwkJPC9nPiYjeGE7CTwvZz4mI3hhOzwvZz4mI3hhOzwvc3ZnPg==;" parent="1" vertex="1">
          <mxGeometry x="305.5" y="-137" width="27" height="26" as="geometry"/>
        </mxCell>
        <mxCell id="Z4ph5W7fdQSffsLZYVWT-15" value="" style="shape=image;verticalLabelPosition=bottom;labelBackgroundColor=#ffffff;verticalAlign=top;aspect=fixed;imageAspect=0;image=data:image/svg+xml,PHN2ZyB4bWxuczpjYz0iaHR0cDovL2NyZWF0aXZlY29tbW9ucy5vcmcvbnMjIiB4bWxuczpkYz0iaHR0cDovL3B1cmwub3JnL2RjL2VsZW1lbnRzLzEuMS8iIHhtbG5zOmlua3NjYXBlPSJodHRwOi8vd3d3Lmlua3NjYXBlLm9yZy9uYW1lc3BhY2VzL2lua3NjYXBlIiB4bWxuczpyZGY9Imh0dHA6Ly93d3cudzMub3JnLzE5OTkvMDIvMjItcmRmLXN5bnRheC1ucyMiIHhtbG5zOnNvZGlwb2RpPSJodHRwOi8vc29kaXBvZGkuc291cmNlZm9yZ2UubmV0L0RURC9zb2RpcG9kaS0wLmR0ZCIgeG1sbnM6c3ZnPSJodHRwOi8vd3d3LnczLm9yZy8yMDAwL3N2ZyIgeG1sbnM9Imh0dHA6Ly93d3cudzMub3JnLzIwMDAvc3ZnIiB4bWxuczp4bGluaz0iaHR0cDovL3d3dy53My5vcmcvMTk5OS94bGluayIgdmVyc2lvbj0iMS4xIiBpZD0ic3ZnMTAzNDY0IiBpbmtzY2FwZTp2ZXJzaW9uPSIwLjkyLjMgKDI0MDU1NDYsIDIwMTgtMDMtMTEpIiBzb2RpcG9kaTpkb2NuYW1lPSJ2c19vbmxpbmVfdGVhbV9tZW1iZXJzLnN2ZyIgeD0iMHB4IiB5PSIwcHgiIHZpZXdCb3g9IjAgMCAyNi45NCAyNi4zNSIgc3R5bGU9ImVuYWJsZS1iYWNrZ3JvdW5kOm5ldyAwIDAgMjYuOTQgMjYuMzU7IiB4bWw6c3BhY2U9InByZXNlcnZlIj4mI3hhOzxzb2RpcG9kaTpuYW1lZHZpZXcgYm9yZGVyY29sb3I9IiM2NjY2NjYiIGJvcmRlcm9wYWNpdHk9IjEiIGZpdC1tYXJnaW4tYm90dG9tPSIwIiBmaXQtbWFyZ2luLWxlZnQ9IjAiIGZpdC1tYXJnaW4tcmlnaHQ9IjAiIGZpdC1tYXJnaW4tdG9wPSIwIiBncmlkdG9sZXJhbmNlPSIxMCIgZ3VpZGV0b2xlcmFuY2U9IjEwIiBpZD0ibmFtZWR2aWV3MTAzNDY2IiBpbmtzY2FwZTpjdXJyZW50LWxheWVyPSJzdmcxMDM0NjQiIGlua3NjYXBlOmN4PSIyMC45NjQyOTMiIGlua3NjYXBlOmN5PSIxNC4zMzg2NTYiIGlua3NjYXBlOnBhZ2VvcGFjaXR5PSIwIiBpbmtzY2FwZTpwYWdlc2hhZG93PSIyIiBpbmtzY2FwZTp3aW5kb3ctaGVpZ2h0PSIxMDE3IiBpbmtzY2FwZTp3aW5kb3ctbWF4aW1pemVkPSIxIiBpbmtzY2FwZTp3aW5kb3ctd2lkdGg9IjE5MjAiIGlua3NjYXBlOndpbmRvdy14PSItOCIgaW5rc2NhcGU6d2luZG93LXk9Ii04IiBpbmtzY2FwZTp6b29tPSIxNy40NTIyNTEiIG9iamVjdHRvbGVyYW5jZT0iMTAiIHBhZ2Vjb2xvcj0iI2ZmZmZmZiIgc2hvd2dyaWQ9ImZhbHNlIj4mI3hhOwk8L3NvZGlwb2RpOm5hbWVkdmlldz4mI3hhOzxnIGlkPSJnMTAzNDYyIj4mI3hhOwk8dGl0bGUgaWQ9InRpdGxlMTAzNDQyIj5QYWdlLTE8L3RpdGxlPiYjeGE7CTxnIGlkPSJncm91cDQyNzAtMSI+JiN4YTsJCTx0aXRsZSBpZD0idGl0bGUxMDM0NDQiPlZTIE9ubGluZSAtIFRlYW0gTWVtYmVyczwvdGl0bGU+JiN4YTsJCTxnIGlkPSJzaGFwZTQyNzEtMiI+JiN4YTsJCQk8dGl0bGUgaWQ9InRpdGxlMTAzNDQ2Ij5TaGVldC40MjcxPC90aXRsZT4mI3hhOwkJCTxwYXRoIGlkPSJwYXRoMTAzNDQ4IiBpbmtzY2FwZTpjb25uZWN0b3ItY3VydmF0dXJlPSIwIiBzdHlsZT0iZmlsbDojN0Q3RDdEOyIgZD0iTTAsMHYyNi4zNWgyNi45NFYwSDB6Ii8+JiN4YTsJCTwvZz4mI3hhOwkJPGcgaWQ9InNoYXBlNDI3Mi00IiB0cmFuc2Zvcm09InRyYW5zbGF0ZSg2LjczMzg0LC0zLjY3NjE4KSI+JiN4YTsJCQk8dGl0bGUgaWQ9InRpdGxlMTAzNDUxIj5TaGVldC40MjcyPC90aXRsZT4mI3hhOwkJCTxwYXRoIGlkPSJwYXRoMTAzNDUzIiBpbmtzY2FwZTpjb25uZWN0b3ItY3VydmF0dXJlPSIwIiBzdHlsZT0iZmlsbDojRkZGRkZGOyIgZD0iTTAsMTYuN3Y5LjY1aDE0LjA4di05LjgxSDkuNmwtMi42NCwzLjY0ICAgICBsLTIuNDUtMy42NEwwLDE2Ljd6Ii8+JiN4YTsJCTwvZz4mI3hhOwkJPGcgaWQ9InNoYXBlNDI3My02IiB0cmFuc2Zvcm09InRyYW5zbGF0ZSg5LjE4MjUxLC0xNC4wOTIpIj4mI3hhOwkJCTx0aXRsZSBpZD0idGl0bGUxMDM0NTYiPlNoZWV0LjQyNzM8L3RpdGxlPiYjeGE7CQkJPHBhdGggaWQ9InBhdGgxMDM0NTgiIGlua3NjYXBlOmNvbm5lY3Rvci1jdXJ2YXR1cmU9IjAiIHN0eWxlPSJmaWxsOiNGRkZGRkY7IiBkPSJNMCwyMS43NWMwLTIuNTMsMi4wNy00LjU5LDQuNTktNC41OSAgICAgYzIuNTYsMCw0LjU5LDIuMDYsNC41OSw0LjU5YzAsMi41Ny0yLjAzLDQuNi00LjU5LDQuNkMyLjA3LDI2LjM1LDAsMjQuMzIsMCwyMS43NXoiLz4mI3hhOwkJPC9nPiYjeGE7CTwvZz4mI3hhOzwvZz4mI3hhOzwvc3ZnPg==;" parent="1" vertex="1">
          <mxGeometry x="373" y="-137" width="27" height="26" as="geometry"/>
        </mxCell>
        <mxCell id="Z4ph5W7fdQSffsLZYVWT-16" value="&lt;font color=&quot;#0050A1&quot;&gt;&lt;b&gt;CAT CIEL FW/FD&lt;/b&gt;&lt;/font&gt;" style="outlineConnect=0;dashed=0;verticalLabelPosition=bottom;verticalAlign=top;align=center;html=1;shape=mxgraph.aws3.kinesis;fillColor=#009900;strokeColor=#6c8ebf;" parent="1" vertex="1">
          <mxGeometry x="70" y="256.5" width="63" height="70" as="geometry"/>
        </mxCell>
        <mxCell id="Z4ph5W7fdQSffsLZYVWT-17" value="&lt;b&gt;&lt;font color=&quot;#0050A1&quot;&gt;CAT SwiftLOG&lt;/font&gt;&lt;/b&gt;" style="outlineConnect=0;dashed=0;verticalLabelPosition=bottom;verticalAlign=top;align=center;html=1;shape=mxgraph.aws3.kinesis;fillColor=#3399FF;strokeColor=#6c8ebf;" parent="1" vertex="1">
          <mxGeometry x="70" y="139.5" width="63" height="70" as="geometry"/>
        </mxCell>
        <mxCell id="Z4ph5W7fdQSffsLZYVWT-22" value="&lt;b&gt;&lt;font color=&quot;#0050A1&quot;&gt;Testing Automation&lt;/font&gt;&lt;/b&gt;" style="outlineConnect=0;dashed=0;verticalLabelPosition=bottom;verticalAlign=top;align=center;html=1;shape=mxgraph.aws3.emr_engine;fillColor=#F58534;gradientColor=none;" parent="1" vertex="1">
          <mxGeometry x="589.5" y="290" width="58" height="40" as="geometry"/>
        </mxCell>
        <mxCell id="Z4ph5W7fdQSffsLZYVWT-23" value="&lt;div&gt;&lt;b&gt;&lt;font color=&quot;#0050A1&quot;&gt;Testing in &lt;br&gt;&lt;/font&gt;&lt;/b&gt;&lt;/div&gt;&lt;div&gt;&lt;b&gt;&lt;font color=&quot;#0050A1&quot;&gt;Development Teams&lt;br&gt;SwiftLOG&lt;br&gt;&lt;/font&gt;&lt;/b&gt;&lt;/div&gt;" style="outlineConnect=0;dashed=0;verticalLabelPosition=bottom;verticalAlign=top;align=center;html=1;shape=mxgraph.aws3.data_pipeline;fillColor=#F58534;gradientColor=none;" parent="1" vertex="1">
          <mxGeometry x="287.5" y="-80" width="56" height="50" as="geometry"/>
        </mxCell>
        <mxCell id="Z4ph5W7fdQSffsLZYVWT-24" value="&lt;font color=&quot;#0050A1&quot;&gt;&lt;b&gt;QA Automation&lt;/b&gt;&lt;/font&gt;" style="outlineConnect=0;dashed=0;verticalLabelPosition=bottom;verticalAlign=top;align=center;html=1;shape=mxgraph.aws3.emr_cluster;fillColor=#F58534;gradientColor=none;strokeColor=#FFFFFF;" parent="1" vertex="1">
          <mxGeometry x="976.5" y="238.5" width="55.5" height="63" as="geometry"/>
        </mxCell>
        <mxCell id="Z4ph5W7fdQSffsLZYVWT-31" value="" style="shape=image;verticalLabelPosition=bottom;labelBackgroundColor=#ffffff;verticalAlign=top;aspect=fixed;imageAspect=0;image=data:image/svg+xml,PHN2ZyB4bWxuczpjYz0iaHR0cDovL2NyZWF0aXZlY29tbW9ucy5vcmcvbnMjIiB4bWxuczpkYz0iaHR0cDovL3B1cmwub3JnL2RjL2VsZW1lbnRzLzEuMS8iIHhtbG5zOmlua3NjYXBlPSJodHRwOi8vd3d3Lmlua3NjYXBlLm9yZy9uYW1lc3BhY2VzL2lua3NjYXBlIiB4bWxuczpyZGY9Imh0dHA6Ly93d3cudzMub3JnLzE5OTkvMDIvMjItcmRmLXN5bnRheC1ucyMiIHhtbG5zOnNvZGlwb2RpPSJodHRwOi8vc29kaXBvZGkuc291cmNlZm9yZ2UubmV0L0RURC9zb2RpcG9kaS0wLmR0ZCIgeG1sbnM6c3ZnPSJodHRwOi8vd3d3LnczLm9yZy8yMDAwL3N2ZyIgeG1sbnM9Imh0dHA6Ly93d3cudzMub3JnLzIwMDAvc3ZnIiB4bWxuczp4bGluaz0iaHR0cDovL3d3dy53My5vcmcvMTk5OS94bGluayIgdmVyc2lvbj0iMS4xIiBpZD0ic3ZnMTAzNDY0IiBpbmtzY2FwZTp2ZXJzaW9uPSIwLjkyLjMgKDI0MDU1NDYsIDIwMTgtMDMtMTEpIiBzb2RpcG9kaTpkb2NuYW1lPSJ2c19vbmxpbmVfdGVhbV9tZW1iZXJzLnN2ZyIgeD0iMHB4IiB5PSIwcHgiIHZpZXdCb3g9IjAgMCAyNi45NCAyNi4zNSIgc3R5bGU9ImVuYWJsZS1iYWNrZ3JvdW5kOm5ldyAwIDAgMjYuOTQgMjYuMzU7IiB4bWw6c3BhY2U9InByZXNlcnZlIj4mI3hhOzxzb2RpcG9kaTpuYW1lZHZpZXcgYm9yZGVyY29sb3I9IiM2NjY2NjYiIGJvcmRlcm9wYWNpdHk9IjEiIGZpdC1tYXJnaW4tYm90dG9tPSIwIiBmaXQtbWFyZ2luLWxlZnQ9IjAiIGZpdC1tYXJnaW4tcmlnaHQ9IjAiIGZpdC1tYXJnaW4tdG9wPSIwIiBncmlkdG9sZXJhbmNlPSIxMCIgZ3VpZGV0b2xlcmFuY2U9IjEwIiBpZD0ibmFtZWR2aWV3MTAzNDY2IiBpbmtzY2FwZTpjdXJyZW50LWxheWVyPSJzdmcxMDM0NjQiIGlua3NjYXBlOmN4PSIyMC45NjQyOTMiIGlua3NjYXBlOmN5PSIxNC4zMzg2NTYiIGlua3NjYXBlOnBhZ2VvcGFjaXR5PSIwIiBpbmtzY2FwZTpwYWdlc2hhZG93PSIyIiBpbmtzY2FwZTp3aW5kb3ctaGVpZ2h0PSIxMDE3IiBpbmtzY2FwZTp3aW5kb3ctbWF4aW1pemVkPSIxIiBpbmtzY2FwZTp3aW5kb3ctd2lkdGg9IjE5MjAiIGlua3NjYXBlOndpbmRvdy14PSItOCIgaW5rc2NhcGU6d2luZG93LXk9Ii04IiBpbmtzY2FwZTp6b29tPSIxNy40NTIyNTEiIG9iamVjdHRvbGVyYW5jZT0iMTAiIHBhZ2Vjb2xvcj0iI2ZmZmZmZiIgc2hvd2dyaWQ9ImZhbHNlIj4mI3hhOwk8L3NvZGlwb2RpOm5hbWVkdmlldz4mI3hhOzxnIGlkPSJnMTAzNDYyIj4mI3hhOwk8dGl0bGUgaWQ9InRpdGxlMTAzNDQyIj5QYWdlLTE8L3RpdGxlPiYjeGE7CTxnIGlkPSJncm91cDQyNzAtMSI+JiN4YTsJCTx0aXRsZSBpZD0idGl0bGUxMDM0NDQiPlZTIE9ubGluZSAtIFRlYW0gTWVtYmVyczwvdGl0bGU+JiN4YTsJCTxnIGlkPSJzaGFwZTQyNzEtMiI+JiN4YTsJCQk8dGl0bGUgaWQ9InRpdGxlMTAzNDQ2Ij5TaGVldC40MjcxPC90aXRsZT4mI3hhOwkJCTxwYXRoIGlkPSJwYXRoMTAzNDQ4IiBpbmtzY2FwZTpjb25uZWN0b3ItY3VydmF0dXJlPSIwIiBzdHlsZT0iZmlsbDojN0Q3RDdEOyIgZD0iTTAsMHYyNi4zNWgyNi45NFYwSDB6Ii8+JiN4YTsJCTwvZz4mI3hhOwkJPGcgaWQ9InNoYXBlNDI3Mi00IiB0cmFuc2Zvcm09InRyYW5zbGF0ZSg2LjczMzg0LC0zLjY3NjE4KSI+JiN4YTsJCQk8dGl0bGUgaWQ9InRpdGxlMTAzNDUxIj5TaGVldC40MjcyPC90aXRsZT4mI3hhOwkJCTxwYXRoIGlkPSJwYXRoMTAzNDUzIiBpbmtzY2FwZTpjb25uZWN0b3ItY3VydmF0dXJlPSIwIiBzdHlsZT0iZmlsbDojRkZGRkZGOyIgZD0iTTAsMTYuN3Y5LjY1aDE0LjA4di05LjgxSDkuNmwtMi42NCwzLjY0ICAgICBsLTIuNDUtMy42NEwwLDE2Ljd6Ii8+JiN4YTsJCTwvZz4mI3hhOwkJPGcgaWQ9InNoYXBlNDI3My02IiB0cmFuc2Zvcm09InRyYW5zbGF0ZSg5LjE4MjUxLC0xNC4wOTIpIj4mI3hhOwkJCTx0aXRsZSBpZD0idGl0bGUxMDM0NTYiPlNoZWV0LjQyNzM8L3RpdGxlPiYjeGE7CQkJPHBhdGggaWQ9InBhdGgxMDM0NTgiIGlua3NjYXBlOmNvbm5lY3Rvci1jdXJ2YXR1cmU9IjAiIHN0eWxlPSJmaWxsOiNGRkZGRkY7IiBkPSJNMCwyMS43NWMwLTIuNTMsMi4wNy00LjU5LDQuNTktNC41OSAgICAgYzIuNTYsMCw0LjU5LDIuMDYsNC41OSw0LjU5YzAsMi41Ny0yLjAzLDQuNi00LjU5LDQuNkMyLjA3LDI2LjM1LDAsMjQuMzIsMCwyMS43NXoiLz4mI3hhOwkJPC9nPiYjeGE7CTwvZz4mI3hhOzwvZz4mI3hhOzwvc3ZnPg==;" parent="1" vertex="1">
          <mxGeometry x="240.5" y="-137" width="27" height="26" as="geometry"/>
        </mxCell>
        <mxCell id="Z4ph5W7fdQSffsLZYVWT-37" value="&lt;b&gt;&lt;font color=&quot;#0050A1&quot;&gt;Project support&lt;br&gt;&lt;/font&gt;&lt;/b&gt;" style="outlineConnect=0;dashed=0;verticalLabelPosition=bottom;verticalAlign=top;align=center;html=1;shape=mxgraph.aws3.glue;fillColor=#F58534;gradientColor=none;" parent="1" vertex="1">
          <mxGeometry x="790" y="-220" width="61" height="70" as="geometry"/>
        </mxCell>
        <mxCell id="Z4ph5W7fdQSffsLZYVWT-41" value="Ciel CAT Task Coordinator&lt;br&gt;&lt;div&gt;- CAT Planning (negotiation with PO, BP update)&lt;/div&gt;&lt;div&gt;- Facilitate &amp;amp; Escalate &lt;br&gt;- Methodology maintenance&lt;br&gt;- quality of service&lt;/div&gt;&lt;div&gt;&lt;br&gt;&lt;/div&gt;&lt;div&gt;&lt;br&gt;&lt;/div&gt;" style="outlineConnect=0;fontColor=#232F3E;gradientColor=none;strokeColor=#232F3E;fillColor=#ffffff;dashed=0;verticalLabelPosition=bottom;verticalAlign=top;align=center;html=1;fontSize=12;fontStyle=0;aspect=fixed;shape=mxgraph.aws4.resourceIcon;resIcon=mxgraph.aws4.role;" parent="1" vertex="1">
          <mxGeometry x="-130" y="250" width="60" height="60" as="geometry"/>
        </mxCell>
        <mxCell id="Z4ph5W7fdQSffsLZYVWT-47" value="&lt;div&gt;Scrum organizer&lt;/div&gt;&lt;div&gt;- Run scrum meetings&lt;/div&gt;&lt;div&gt;- Facilitate&lt;br&gt;- Knowledge share&lt;br&gt;&lt;/div&gt;&lt;div&gt;&lt;br&gt; &lt;/div&gt;&lt;div&gt;&lt;br&gt;&lt;/div&gt;&lt;div&gt;&lt;br&gt;&lt;/div&gt;" style="outlineConnect=0;fontColor=#232F3E;gradientColor=none;strokeColor=#232F3E;fillColor=#ffffff;dashed=0;verticalLabelPosition=bottom;verticalAlign=top;align=center;html=1;fontSize=12;fontStyle=0;aspect=fixed;shape=mxgraph.aws4.resourceIcon;resIcon=mxgraph.aws4.role;" parent="1" vertex="1">
          <mxGeometry x="-280" y="178.5" width="60" height="60" as="geometry"/>
        </mxCell>
        <mxCell id="Z4ph5W7fdQSffsLZYVWT-54" value="SwiftLOG CAT Task Coordinator&lt;br&gt;&lt;div&gt;- CAT Planning (negotiation with PO, BP update)&lt;/div&gt;&lt;div&gt;- Facilitate &amp;amp; Escalate &lt;br&gt;- Methodology maintenance&lt;br&gt;- quality of service&lt;/div&gt;&lt;div&gt;&lt;br&gt;&lt;/div&gt;&lt;div&gt;&lt;br&gt;&lt;/div&gt;" style="outlineConnect=0;fontColor=#232F3E;gradientColor=none;strokeColor=#232F3E;fillColor=#ffffff;dashed=0;verticalLabelPosition=bottom;verticalAlign=top;align=center;html=1;fontSize=12;fontStyle=0;aspect=fixed;shape=mxgraph.aws4.resourceIcon;resIcon=mxgraph.aws4.role;" parent="1" vertex="1">
          <mxGeometry x="-120" y="70" width="60" height="60" as="geometry"/>
        </mxCell>
        <mxCell id="Z4ph5W7fdQSffsLZYVWT-59" value="SwiftLOG Senior QA&lt;br&gt;&lt;div&gt;- Task planning&lt;br&gt;- guide juniors &lt;br&gt;&lt;/div&gt;&lt;div&gt;- Methodology maintenance&lt;br&gt;- quality of service&lt;br&gt;&lt;/div&gt;&lt;div&gt;&lt;br&gt;&lt;/div&gt;&lt;div&gt;&lt;br&gt;&lt;/div&gt;" style="outlineConnect=0;fontColor=#232F3E;gradientColor=none;strokeColor=#232F3E;fillColor=#ffffff;dashed=0;verticalLabelPosition=bottom;verticalAlign=top;align=center;html=1;fontSize=12;fontStyle=0;aspect=fixed;shape=mxgraph.aws4.resourceIcon;resIcon=mxgraph.aws4.role;" parent="1" vertex="1">
          <mxGeometry x="70" y="-177" width="60" height="60" as="geometry"/>
        </mxCell>
        <mxCell id="Z4ph5W7fdQSffsLZYVWT-61" value="&lt;div&gt;Regression E2E test library Architect SwiftLOG&lt;br&gt;+&lt;br&gt;&lt;/div&gt;&lt;div&gt;Business Analyst&lt;br&gt;Direct development based on:&lt;br&gt;&lt;/div&gt;&lt;div&gt;- Business templates &lt;br&gt;- Project support&lt;/div&gt;&lt;div&gt;(Negotiate with primes)&lt;/div&gt;&lt;div&gt;&lt;br&gt;&lt;/div&gt;&lt;div&gt;&lt;br&gt;&lt;/div&gt;" style="outlineConnect=0;fontColor=#232F3E;gradientColor=none;strokeColor=#232F3E;fillColor=#ffffff;dashed=0;verticalLabelPosition=bottom;verticalAlign=top;align=center;html=1;fontSize=12;fontStyle=0;aspect=fixed;shape=mxgraph.aws4.resourceIcon;resIcon=mxgraph.aws4.role;" parent="1" vertex="1">
          <mxGeometry x="570" y="355" width="64" height="64" as="geometry"/>
        </mxCell>
        <mxCell id="Z4ph5W7fdQSffsLZYVWT-67" value="&lt;div&gt;&amp;nbsp;Lead&lt;br&gt;&lt;/div&gt;&lt;div&gt;- Backlog preparation&lt;br&gt;&lt;/div&gt;&lt;div&gt;- Facilitate &amp;amp; Escalate &lt;br&gt;- Methodology maintenance&lt;br&gt;- Scrum&lt;br&gt;- Quality of service&lt;br&gt;- PPR / Interviews&lt;br&gt;&lt;/div&gt;&lt;div&gt;&lt;br&gt;&lt;/div&gt;&lt;div&gt;&lt;br&gt;&lt;/div&gt;" style="outlineConnect=0;fontColor=#232F3E;gradientColor=none;fillColor=#C7131F;strokeColor=none;dashed=0;verticalLabelPosition=bottom;verticalAlign=top;align=center;html=1;fontSize=12;fontStyle=0;aspect=fixed;pointerEvents=1;shape=mxgraph.aws4.role;" parent="1" vertex="1">
          <mxGeometry x="579.5" y="70" width="78" height="44" as="geometry"/>
        </mxCell>
        <mxCell id="Z4ph5W7fdQSffsLZYVWT-72" value="&lt;div&gt;&amp;nbsp;Lead&lt;br&gt;&lt;/div&gt;&lt;div&gt;- Backlog preparation&lt;br&gt;&lt;/div&gt;&lt;div&gt;- Facilitate &amp;amp; Escalate &lt;br&gt;- Methodology maintenance&lt;br&gt;- Scrum&lt;br&gt;- Quality of service&lt;br&gt;- PPR / Interviews&lt;/div&gt;&lt;div&gt;&lt;br&gt;&lt;/div&gt;&lt;div&gt;&lt;br&gt;&lt;/div&gt;" style="outlineConnect=0;fontColor=#232F3E;gradientColor=none;fillColor=#C7131F;strokeColor=none;dashed=0;verticalLabelPosition=bottom;verticalAlign=top;align=center;html=1;fontSize=12;fontStyle=0;aspect=fixed;pointerEvents=1;shape=mxgraph.aws4.role;" parent="1" vertex="1">
          <mxGeometry x="965.5" y="26" width="78" height="44" as="geometry"/>
        </mxCell>
        <mxCell id="vpsyyFnBwMcmmmTgWb0m-3" value="" style="shape=image;verticalLabelPosition=bottom;labelBackgroundColor=#ffffff;verticalAlign=top;aspect=fixed;imageAspect=0;image=data:image/svg+xml,PHN2ZyB4bWxuczpjYz0iaHR0cDovL2NyZWF0aXZlY29tbW9ucy5vcmcvbnMjIiB4bWxuczpkYz0iaHR0cDovL3B1cmwub3JnL2RjL2VsZW1lbnRzLzEuMS8iIHhtbG5zOmlua3NjYXBlPSJodHRwOi8vd3d3Lmlua3NjYXBlLm9yZy9uYW1lc3BhY2VzL2lua3NjYXBlIiB4bWxuczpyZGY9Imh0dHA6Ly93d3cudzMub3JnLzE5OTkvMDIvMjItcmRmLXN5bnRheC1ucyMiIHhtbG5zOnNvZGlwb2RpPSJodHRwOi8vc29kaXBvZGkuc291cmNlZm9yZ2UubmV0L0RURC9zb2RpcG9kaS0wLmR0ZCIgeG1sbnM6c3ZnPSJodHRwOi8vd3d3LnczLm9yZy8yMDAwL3N2ZyIgeG1sbnM9Imh0dHA6Ly93d3cudzMub3JnLzIwMDAvc3ZnIiB4bWxuczp4bGluaz0iaHR0cDovL3d3dy53My5vcmcvMTk5OS94bGluayIgdmVyc2lvbj0iMS4xIiBpZD0ic3ZnMTAzNDY0IiBpbmtzY2FwZTp2ZXJzaW9uPSIwLjkyLjMgKDI0MDU1NDYsIDIwMTgtMDMtMTEpIiBzb2RpcG9kaTpkb2NuYW1lPSJ2c19vbmxpbmVfdGVhbV9tZW1iZXJzLnN2ZyIgeD0iMHB4IiB5PSIwcHgiIHZpZXdCb3g9IjAgMCAyNi45NCAyNi4zNSIgc3R5bGU9ImVuYWJsZS1iYWNrZ3JvdW5kOm5ldyAwIDAgMjYuOTQgMjYuMzU7IiB4bWw6c3BhY2U9InByZXNlcnZlIj4mI3hhOzxzb2RpcG9kaTpuYW1lZHZpZXcgYm9yZGVyY29sb3I9IiM2NjY2NjYiIGJvcmRlcm9wYWNpdHk9IjEiIGZpdC1tYXJnaW4tYm90dG9tPSIwIiBmaXQtbWFyZ2luLWxlZnQ9IjAiIGZpdC1tYXJnaW4tcmlnaHQ9IjAiIGZpdC1tYXJnaW4tdG9wPSIwIiBncmlkdG9sZXJhbmNlPSIxMCIgZ3VpZGV0b2xlcmFuY2U9IjEwIiBpZD0ibmFtZWR2aWV3MTAzNDY2IiBpbmtzY2FwZTpjdXJyZW50LWxheWVyPSJzdmcxMDM0NjQiIGlua3NjYXBlOmN4PSIyMC45NjQyOTMiIGlua3NjYXBlOmN5PSIxNC4zMzg2NTYiIGlua3NjYXBlOnBhZ2VvcGFjaXR5PSIwIiBpbmtzY2FwZTpwYWdlc2hhZG93PSIyIiBpbmtzY2FwZTp3aW5kb3ctaGVpZ2h0PSIxMDE3IiBpbmtzY2FwZTp3aW5kb3ctbWF4aW1pemVkPSIxIiBpbmtzY2FwZTp3aW5kb3ctd2lkdGg9IjE5MjAiIGlua3NjYXBlOndpbmRvdy14PSItOCIgaW5rc2NhcGU6d2luZG93LXk9Ii04IiBpbmtzY2FwZTp6b29tPSIxNy40NTIyNTEiIG9iamVjdHRvbGVyYW5jZT0iMTAiIHBhZ2Vjb2xvcj0iI2ZmZmZmZiIgc2hvd2dyaWQ9ImZhbHNlIj4mI3hhOwk8L3NvZGlwb2RpOm5hbWVkdmlldz4mI3hhOzxnIGlkPSJnMTAzNDYyIj4mI3hhOwk8dGl0bGUgaWQ9InRpdGxlMTAzNDQyIj5QYWdlLTE8L3RpdGxlPiYjeGE7CTxnIGlkPSJncm91cDQyNzAtMSI+JiN4YTsJCTx0aXRsZSBpZD0idGl0bGUxMDM0NDQiPlZTIE9ubGluZSAtIFRlYW0gTWVtYmVyczwvdGl0bGU+JiN4YTsJCTxnIGlkPSJzaGFwZTQyNzEtMiI+JiN4YTsJCQk8dGl0bGUgaWQ9InRpdGxlMTAzNDQ2Ij5TaGVldC40MjcxPC90aXRsZT4mI3hhOwkJCTxwYXRoIGlkPSJwYXRoMTAzNDQ4IiBpbmtzY2FwZTpjb25uZWN0b3ItY3VydmF0dXJlPSIwIiBzdHlsZT0iZmlsbDojN0Q3RDdEOyIgZD0iTTAsMHYyNi4zNWgyNi45NFYwSDB6Ii8+JiN4YTsJCTwvZz4mI3hhOwkJPGcgaWQ9InNoYXBlNDI3Mi00IiB0cmFuc2Zvcm09InRyYW5zbGF0ZSg2LjczMzg0LC0zLjY3NjE4KSI+JiN4YTsJCQk8dGl0bGUgaWQ9InRpdGxlMTAzNDUxIj5TaGVldC40MjcyPC90aXRsZT4mI3hhOwkJCTxwYXRoIGlkPSJwYXRoMTAzNDUzIiBpbmtzY2FwZTpjb25uZWN0b3ItY3VydmF0dXJlPSIwIiBzdHlsZT0iZmlsbDojRkZGRkZGOyIgZD0iTTAsMTYuN3Y5LjY1aDE0LjA4di05LjgxSDkuNmwtMi42NCwzLjY0ICAgICBsLTIuNDUtMy42NEwwLDE2Ljd6Ii8+JiN4YTsJCTwvZz4mI3hhOwkJPGcgaWQ9InNoYXBlNDI3My02IiB0cmFuc2Zvcm09InRyYW5zbGF0ZSg5LjE4MjUxLC0xNC4wOTIpIj4mI3hhOwkJCTx0aXRsZSBpZD0idGl0bGUxMDM0NTYiPlNoZWV0LjQyNzM8L3RpdGxlPiYjeGE7CQkJPHBhdGggaWQ9InBhdGgxMDM0NTgiIGlua3NjYXBlOmNvbm5lY3Rvci1jdXJ2YXR1cmU9IjAiIHN0eWxlPSJmaWxsOiNGRkZGRkY7IiBkPSJNMCwyMS43NWMwLTIuNTMsMi4wNy00LjU5LDQuNTktNC41OSAgICAgYzIuNTYsMCw0LjU5LDIuMDYsNC41OSw0LjU5YzAsMi41Ny0yLjAzLDQuNi00LjU5LDQuNkMyLjA3LDI2LjM1LDAsMjQuMzIsMCwyMS43NXoiLz4mI3hhOwkJPC9nPiYjeGE7CTwvZz4mI3hhOzwvZz4mI3hhOzwvc3ZnPg==;" parent="1" vertex="1">
          <mxGeometry x="691.5" y="313.5" width="27" height="26" as="geometry"/>
        </mxCell>
        <mxCell id="vpsyyFnBwMcmmmTgWb0m-6" value="&lt;div&gt;&amp;nbsp;Lead&lt;br&gt;&lt;/div&gt;&lt;div&gt;-- Quality of service&lt;br&gt;- PPR / Interviews&lt;br&gt;&lt;/div&gt;&lt;div&gt;&lt;br&gt;&lt;/div&gt;&lt;div&gt;&lt;br&gt;&lt;/div&gt;" style="outlineConnect=0;fontColor=#232F3E;gradientColor=none;fillColor=#C7131F;strokeColor=none;dashed=0;verticalLabelPosition=bottom;verticalAlign=top;align=center;html=1;fontSize=12;fontStyle=0;aspect=fixed;pointerEvents=1;shape=mxgraph.aws4.role;" parent="1" vertex="1">
          <mxGeometry x="-0.5" y="26" width="78" height="44" as="geometry"/>
        </mxCell>
        <mxCell id="vpsyyFnBwMcmmmTgWb0m-7" value="Project support coordinator&lt;br&gt;&lt;div&gt;- Scope and effort clarification&lt;br&gt;- Assignment&amp;nbsp;&lt;/div&gt;&lt;div&gt;- Remote support &lt;br&gt;&lt;/div&gt;&lt;div&gt;- Methodology maintenance&lt;br&gt;- quality of service&lt;br&gt;&lt;/div&gt;&lt;div&gt;&lt;br&gt;&lt;/div&gt;&lt;div&gt;&lt;br&gt;&lt;/div&gt;" style="outlineConnect=0;fontColor=#232F3E;gradientColor=none;strokeColor=#232F3E;fillColor=#ffffff;dashed=0;verticalLabelPosition=bottom;verticalAlign=top;align=center;html=1;fontSize=12;fontStyle=0;aspect=fixed;shape=mxgraph.aws4.resourceIcon;resIcon=mxgraph.aws4.role;" parent="1" vertex="1">
          <mxGeometry x="617.5" y="-260" width="60" height="60" as="geometry"/>
        </mxCell>
        <mxCell id="vpsyyFnBwMcmmmTgWb0m-16" value="&lt;div&gt;Testing in customer projects coordinator&lt;/div&gt;&lt;div&gt;- Methodology maintenance&lt;/div&gt;&lt;div&gt;- Assistance with framework&lt;br&gt;Feedback collection&lt;br&gt;&lt;br&gt;&lt;/div&gt;&lt;div&gt;&lt;br&gt;&lt;/div&gt;&lt;div&gt;&lt;br&gt;&lt;/div&gt;" style="outlineConnect=0;fontColor=#232F3E;gradientColor=none;strokeColor=#232F3E;fillColor=#ffffff;dashed=0;verticalLabelPosition=bottom;verticalAlign=top;align=center;html=1;fontSize=12;fontStyle=0;aspect=fixed;shape=mxgraph.aws4.resourceIcon;resIcon=mxgraph.aws4.role;" parent="1" vertex="1">
          <mxGeometry x="791" y="-93" width="60" height="60" as="geometry"/>
        </mxCell>
        <mxCell id="vpsyyFnBwMcmmmTgWb0m-19" value="" style="shape=image;verticalLabelPosition=bottom;labelBackgroundColor=#ffffff;verticalAlign=top;aspect=fixed;imageAspect=0;image=data:image/svg+xml,PHN2ZyB4bWxuczpjYz0iaHR0cDovL2NyZWF0aXZlY29tbW9ucy5vcmcvbnMjIiB4bWxuczpkYz0iaHR0cDovL3B1cmwub3JnL2RjL2VsZW1lbnRzLzEuMS8iIHhtbG5zOmlua3NjYXBlPSJodHRwOi8vd3d3Lmlua3NjYXBlLm9yZy9uYW1lc3BhY2VzL2lua3NjYXBlIiB4bWxuczpyZGY9Imh0dHA6Ly93d3cudzMub3JnLzE5OTkvMDIvMjItcmRmLXN5bnRheC1ucyMiIHhtbG5zOnNvZGlwb2RpPSJodHRwOi8vc29kaXBvZGkuc291cmNlZm9yZ2UubmV0L0RURC9zb2RpcG9kaS0wLmR0ZCIgeG1sbnM6c3ZnPSJodHRwOi8vd3d3LnczLm9yZy8yMDAwL3N2ZyIgeG1sbnM9Imh0dHA6Ly93d3cudzMub3JnLzIwMDAvc3ZnIiB4bWxuczp4bGluaz0iaHR0cDovL3d3dy53My5vcmcvMTk5OS94bGluayIgdmVyc2lvbj0iMS4xIiBpZD0ic3ZnMTAzNDY0IiBpbmtzY2FwZTp2ZXJzaW9uPSIwLjkyLjMgKDI0MDU1NDYsIDIwMTgtMDMtMTEpIiBzb2RpcG9kaTpkb2NuYW1lPSJ2c19vbmxpbmVfdGVhbV9tZW1iZXJzLnN2ZyIgeD0iMHB4IiB5PSIwcHgiIHZpZXdCb3g9IjAgMCAyNi45NCAyNi4zNSIgc3R5bGU9ImVuYWJsZS1iYWNrZ3JvdW5kOm5ldyAwIDAgMjYuOTQgMjYuMzU7IiB4bWw6c3BhY2U9InByZXNlcnZlIj4mI3hhOzxzb2RpcG9kaTpuYW1lZHZpZXcgYm9yZGVyY29sb3I9IiM2NjY2NjYiIGJvcmRlcm9wYWNpdHk9IjEiIGZpdC1tYXJnaW4tYm90dG9tPSIwIiBmaXQtbWFyZ2luLWxlZnQ9IjAiIGZpdC1tYXJnaW4tcmlnaHQ9IjAiIGZpdC1tYXJnaW4tdG9wPSIwIiBncmlkdG9sZXJhbmNlPSIxMCIgZ3VpZGV0b2xlcmFuY2U9IjEwIiBpZD0ibmFtZWR2aWV3MTAzNDY2IiBpbmtzY2FwZTpjdXJyZW50LWxheWVyPSJzdmcxMDM0NjQiIGlua3NjYXBlOmN4PSIyMC45NjQyOTMiIGlua3NjYXBlOmN5PSIxNC4zMzg2NTYiIGlua3NjYXBlOnBhZ2VvcGFjaXR5PSIwIiBpbmtzY2FwZTpwYWdlc2hhZG93PSIyIiBpbmtzY2FwZTp3aW5kb3ctaGVpZ2h0PSIxMDE3IiBpbmtzY2FwZTp3aW5kb3ctbWF4aW1pemVkPSIxIiBpbmtzY2FwZTp3aW5kb3ctd2lkdGg9IjE5MjAiIGlua3NjYXBlOndpbmRvdy14PSItOCIgaW5rc2NhcGU6d2luZG93LXk9Ii04IiBpbmtzY2FwZTp6b29tPSIxNy40NTIyNTEiIG9iamVjdHRvbGVyYW5jZT0iMTAiIHBhZ2Vjb2xvcj0iI2ZmZmZmZiIgc2hvd2dyaWQ9ImZhbHNlIj4mI3hhOwk8L3NvZGlwb2RpOm5hbWVkdmlldz4mI3hhOzxnIGlkPSJnMTAzNDYyIj4mI3hhOwk8dGl0bGUgaWQ9InRpdGxlMTAzNDQyIj5QYWdlLTE8L3RpdGxlPiYjeGE7CTxnIGlkPSJncm91cDQyNzAtMSI+JiN4YTsJCTx0aXRsZSBpZD0idGl0bGUxMDM0NDQiPlZTIE9ubGluZSAtIFRlYW0gTWVtYmVyczwvdGl0bGU+JiN4YTsJCTxnIGlkPSJzaGFwZTQyNzEtMiI+JiN4YTsJCQk8dGl0bGUgaWQ9InRpdGxlMTAzNDQ2Ij5TaGVldC40MjcxPC90aXRsZT4mI3hhOwkJCTxwYXRoIGlkPSJwYXRoMTAzNDQ4IiBpbmtzY2FwZTpjb25uZWN0b3ItY3VydmF0dXJlPSIwIiBzdHlsZT0iZmlsbDojN0Q3RDdEOyIgZD0iTTAsMHYyNi4zNWgyNi45NFYwSDB6Ii8+JiN4YTsJCTwvZz4mI3hhOwkJPGcgaWQ9InNoYXBlNDI3Mi00IiB0cmFuc2Zvcm09InRyYW5zbGF0ZSg2LjczMzg0LC0zLjY3NjE4KSI+JiN4YTsJCQk8dGl0bGUgaWQ9InRpdGxlMTAzNDUxIj5TaGVldC40MjcyPC90aXRsZT4mI3hhOwkJCTxwYXRoIGlkPSJwYXRoMTAzNDUzIiBpbmtzY2FwZTpjb25uZWN0b3ItY3VydmF0dXJlPSIwIiBzdHlsZT0iZmlsbDojRkZGRkZGOyIgZD0iTTAsMTYuN3Y5LjY1aDE0LjA4di05LjgxSDkuNmwtMi42NCwzLjY0ICAgICBsLTIuNDUtMy42NEwwLDE2Ljd6Ii8+JiN4YTsJCTwvZz4mI3hhOwkJPGcgaWQ9InNoYXBlNDI3My02IiB0cmFuc2Zvcm09InRyYW5zbGF0ZSg5LjE4MjUxLC0xNC4wOTIpIj4mI3hhOwkJCTx0aXRsZSBpZD0idGl0bGUxMDM0NTYiPlNoZWV0LjQyNzM8L3RpdGxlPiYjeGE7CQkJPHBhdGggaWQ9InBhdGgxMDM0NTgiIGlua3NjYXBlOmNvbm5lY3Rvci1jdXJ2YXR1cmU9IjAiIHN0eWxlPSJmaWxsOiNGRkZGRkY7IiBkPSJNMCwyMS43NWMwLTIuNTMsMi4wNy00LjU5LDQuNTktNC41OSAgICAgYzIuNTYsMCw0LjU5LDIuMDYsNC41OSw0LjU5YzAsMi41Ny0yLjAzLDQuNi00LjU5LDQuNkMyLjA3LDI2LjM1LDAsMjQuMzIsMCwyMS43NXoiLz4mI3hhOwkJPC9nPiYjeGE7CTwvZz4mI3hhOzwvZz4mI3hhOzwvc3ZnPg==;" parent="1" vertex="1">
          <mxGeometry x="991" y="347" width="27" height="26" as="geometry"/>
        </mxCell>
        <mxCell id="vpsyyFnBwMcmmmTgWb0m-21" value="Business Analyst" style="outlineConnect=0;fontColor=#232F3E;gradientColor=none;strokeColor=#232F3E;fillColor=#ffffff;dashed=0;verticalLabelPosition=bottom;verticalAlign=top;align=center;html=1;fontSize=12;fontStyle=0;aspect=fixed;shape=mxgraph.aws4.resourceIcon;resIcon=mxgraph.aws4.role;" parent="1" vertex="1">
          <mxGeometry x="1043.5" y="373" width="60" height="60" as="geometry"/>
        </mxCell>
        <mxCell id="vpsyyFnBwMcmmmTgWb0m-22" value="System Architect " style="outlineConnect=0;fontColor=#232F3E;gradientColor=none;strokeColor=#232F3E;fillColor=#ffffff;dashed=0;verticalLabelPosition=bottom;verticalAlign=top;align=center;html=1;fontSize=12;fontStyle=0;aspect=fixed;shape=mxgraph.aws4.resourceIcon;resIcon=mxgraph.aws4.role;" parent="1" vertex="1">
          <mxGeometry x="893.5" y="382.5" width="60" height="60" as="geometry"/>
        </mxCell>
        <mxCell id="vpsyyFnBwMcmmmTgWb0m-23" value="SwiftLOG Senior QA&lt;br&gt;&lt;div&gt;- guide juniors &lt;br&gt;&lt;/div&gt;&lt;div&gt;&lt;br&gt;&lt;/div&gt;&lt;div&gt;&lt;br&gt;&lt;/div&gt;" style="outlineConnect=0;fontColor=#232F3E;gradientColor=none;strokeColor=#232F3E;fillColor=#ffffff;dashed=0;verticalLabelPosition=bottom;verticalAlign=top;align=center;html=1;fontSize=12;fontStyle=0;aspect=fixed;shape=mxgraph.aws4.resourceIcon;resIcon=mxgraph.aws4.role;" parent="1" vertex="1">
          <mxGeometry x="326" y="92" width="60" height="60" as="geometry"/>
        </mxCell>
        <mxCell id="v6-zlNKsE_27V95CcpX1-1" value="" style="whiteSpace=wrap;html=1;aspect=fixed;strokeColor=#FFFFFF;" vertex="1" parent="1">
          <mxGeometry x="897" y="570" width="80" height="80" as="geometry"/>
        </mxCell>
      </root>
    </mxGraphModel>
  </diagram>
</mxfile>
